<mxfile host="app.diagrams.net" agent="Mozilla/5.0 (Windows NT 10.0; Win64; x64) AppleWebKit/537.36 (KHTML, like Gecko) Chrome/127.0.0.0 Safari/537.36 Edg/127.0.0.0" version="24.7.6">
  <diagram id="f106602c-feb2-e66a-4537-3a34d633f6aa" name="Page-1">
    <mxGraphModel dx="893" dy="580" grid="1" gridSize="10" guides="1" tooltips="1" connect="0" arrows="0" fold="1" page="1" pageScale="1" pageWidth="1169" pageHeight="827" background="none" math="0" shadow="0">
      <root>
        <mxCell id="0" />
        <mxCell id="1" parent="0" />
        <mxCell id="14" value="&lt;b&gt;Google &lt;/b&gt;Cloud Platform" style="fillColor=#F6F6F6;strokeColor=none;shadow=0;gradientColor=none;fontSize=14;align=left;spacing=10;fontColor=#717171;9E9E9E;verticalAlign=top;spacingTop=-4;fontStyle=0;spacingLeft=40;html=1;" parent="1" vertex="1">
          <mxGeometry x="450" y="90" width="530" height="490" as="geometry" />
        </mxCell>
        <mxCell id="15" value="" style="shape=mxgraph.gcp2.google_cloud_platform;fillColor=#F6F6F6;strokeColor=none;shadow=0;gradientColor=none;" parent="14" vertex="1">
          <mxGeometry width="23" height="20" relative="1" as="geometry">
            <mxPoint x="20" y="10" as="offset" />
          </mxGeometry>
        </mxCell>
        <mxCell id="c2ikwcp3_SZ86CP-GAVo-1056" value="" style="strokeColor=#dddddd;shadow=1;strokeWidth=1;rounded=1;absoluteArcSize=1;arcSize=2;" vertex="1" parent="14">
          <mxGeometry x="169.79690671031096" y="380" width="112.11538461538461" height="64.73" as="geometry" />
        </mxCell>
        <mxCell id="c2ikwcp3_SZ86CP-GAVo-1057" value="Firebase&amp;nbsp;&lt;div&gt;Auth&lt;/div&gt;" style="sketch=0;dashed=0;connectable=0;html=1;fillColor=#5184F3;strokeColor=none;shape=mxgraph.gcp2.firebase;part=1;labelPosition=right;verticalLabelPosition=middle;align=left;verticalAlign=middle;spacingLeft=5;fontColor=#999999;fontSize=12;" vertex="1" parent="c2ikwcp3_SZ86CP-GAVo-1056">
          <mxGeometry width="32.4" height="45" relative="1" as="geometry">
            <mxPoint x="5" y="7" as="offset" />
          </mxGeometry>
        </mxCell>
        <mxCell id="c2ikwcp3_SZ86CP-GAVo-1060" value="" style="strokeColor=#dddddd;shadow=1;strokeWidth=1;rounded=1;absoluteArcSize=1;arcSize=2;" vertex="1" parent="14">
          <mxGeometry x="306.836170212766" y="200" width="144.22765957446808" height="60" as="geometry" />
        </mxCell>
        <mxCell id="c2ikwcp3_SZ86CP-GAVo-1061" value="Firestore" style="editableCssRules=.*;html=1;fontColor=#999999;shape=image;verticalLabelPosition=middle;verticalAlign=middle;labelPosition=right;align=left;spacingLeft=20;part=1;points=[];imageAspect=0;image=data:image/svg+xml,PHN2ZyB4bWxucz0iaHR0cDovL3d3dy53My5vcmcvMjAwMC9zdmciIHhtbG5zOnY9Imh0dHBzOi8vdmVjdGEuaW8vbmFubyIgd2lkdGg9IjMyMy45MDU2MTAzOTg2NzUxNSIgaGVpZ2h0PSIzNzYuNDIyMjk0OTYzNjg0MDciIHZpZXdCb3g9Ii0wLjA5NzAwMDAwMjg2MTAyMjk1IDAuMjg3OTk5OTg3NjAyMjMzOSA4NS42OTk5OTY5NDgyNDIxOSA5OS41OTUwMDEyMjA3MDMxMiI+JiN4YTs8c3R5bGUgdHlwZT0idGV4dC9jc3MiPiYjeGE7CS5zdDB7ZmlsbDojYWVjYmZhO30mI3hhOwkuc3Qxe2ZpbGw6IzY2OWRmNjt9JiN4YTsJLnN0MntmaWxsOiM0Mjg1ZjQ7fSYjeGE7PC9zdHlsZT4mI3hhOwk8cGF0aCBjbGFzcz0ic3QwIiBkPSJNLS4wOTcgNzUuODE1VjU1Ljg3NGw0Mi44NS0yMC4xODN2MTkuMDd6bTAtMzUuNDAzVjIwLjQ3MUw0Mi43NTMuMjg4djE5LjA3eiIvPiYjeGE7CTxwYXRoIGNsYXNzPSJzdDEiIGQ9Ik04NS42MDMgNzUuODE1VjU1Ljg3NGwtNDIuODUtMjAuMTgzdjE5LjA3em0wLTM1LjQwM1YyMC40NzFMNDIuNzUzLjI4OHYxOS4wN3oiLz4mI3hhOwk8cGF0aCBjbGFzcz0ic3QyIiBkPSJNNDIuNzUzIDgwLjMxNGwxNi4yMTctNy41MjUgMjEuMDg0IDkuNzE3LTM3LjMwMSAxNy4zNzd6Ii8+JiN4YTs8L3N2Zz4=;" vertex="1" parent="c2ikwcp3_SZ86CP-GAVo-1060">
          <mxGeometry width="26" height="30" relative="1" as="geometry">
            <mxPoint x="17" y="15" as="offset" />
          </mxGeometry>
        </mxCell>
        <mxCell id="c2ikwcp3_SZ86CP-GAVo-1066" value="" style="strokeColor=#dddddd;shadow=1;strokeWidth=1;rounded=1;absoluteArcSize=1;arcSize=2;" vertex="1" parent="14">
          <mxGeometry x="306.836170212766" y="280" width="144.22765957446808" height="60" as="geometry" />
        </mxCell>
        <mxCell id="c2ikwcp3_SZ86CP-GAVo-1067" value="Cloud&#xa;Storage" style="editableCssRules=.*;html=1;fontColor=#999999;shape=image;verticalLabelPosition=middle;verticalAlign=middle;labelPosition=right;align=left;spacingLeft=20;part=1;points=[];imageAspect=0;image=data:image/svg+xml,PHN2ZyB4bWxucz0iaHR0cDovL3d3dy53My5vcmcvMjAwMC9zdmciIHhtbG5zOnY9Imh0dHBzOi8vdmVjdGEuaW8vbmFubyIgd2lkdGg9IjIwIiBoZWlnaHQ9IjE2IiB2aWV3Qm94PSIwIDAgMjAgMTYiPiYjeGE7CTxzdHlsZSB0eXBlPSJ0ZXh0L2NzcyI+JiN4YTsJLnN0MHtmaWxsOiM0Mjg1ZjQ7fSYjeGE7CS5zdDF7ZmlsbDojNjY5ZGY2O30mI3hhOwkuc3Qye2ZpbGw6I2FlY2JmYTt9JiN4YTsJLnN0M3tmaWxsOiNmZmY7fSYjeGE7CTwvc3R5bGU+JiN4YTsJPHBhdGggY2xhc3M9InN0MiIgZD0iTTAgMGgyMHY3SDB6Ii8+JiN4YTsJPHBhdGggY2xhc3M9InN0MSIgZD0iTTE4IDBoMnY3aC0yeiIvPiYjeGE7CTxwYXRoIGNsYXNzPSJzdDAiIGQ9Ik0xOCA3bDItN2gtMnoiLz4mI3hhOwk8cGF0aCBjbGFzcz0ic3QxIiBkPSJNMCAwaDJ2N0gweiIvPiYjeGE7CTxnIGNsYXNzPSJzdDMiPiYjeGE7CQk8cGF0aCBkPSJNNCAzaDZ2MUg0eiIvPiYjeGE7CQk8cmVjdCB4PSIxMyIgeT0iMiIgd2lkdGg9IjMiIGhlaWdodD0iMyIgcng9IjEuNSIvPiYjeGE7CTwvZz4mI3hhOwk8cGF0aCBjbGFzcz0ic3QyIiBkPSJNMCA5aDIwdjdIMHoiLz4mI3hhOwk8cGF0aCBjbGFzcz0ic3QxIiBkPSJNMTggOWgydjdoLTJ6Ii8+JiN4YTsJPHBhdGggY2xhc3M9InN0MCIgZD0iTTE4IDE2bDItN2gtMnoiLz4mI3hhOwk8cGF0aCBjbGFzcz0ic3QxIiBkPSJNMCA5aDJ2N0gweiIvPiYjeGE7CTxnIGNsYXNzPSJzdDMiPiYjeGE7CQk8cGF0aCBkPSJNNCAxMmg2djFINHoiLz4mI3hhOwkJPHJlY3QgeD0iMTMiIHk9IjExIiB3aWR0aD0iMyIgaGVpZ2h0PSIzIiByeD0iMS41Ii8+JiN4YTsJPC9nPiYjeGE7PC9zdmc+;" vertex="1" parent="c2ikwcp3_SZ86CP-GAVo-1066">
          <mxGeometry width="30" height="24" relative="1" as="geometry">
            <mxPoint x="15" y="18" as="offset" />
          </mxGeometry>
        </mxCell>
        <mxCell id="c2ikwcp3_SZ86CP-GAVo-1070" value="" style="strokeColor=#dddddd;shadow=1;strokeWidth=1;rounded=1;absoluteArcSize=1;arcSize=2;" vertex="1" parent="14">
          <mxGeometry x="169.7917021276596" y="50" width="146.59574468085106" height="60" as="geometry" />
        </mxCell>
        <mxCell id="c2ikwcp3_SZ86CP-GAVo-1071" value="Cloud&#xa;Functions" style="editableCssRules=.*;html=1;fontColor=#999999;shape=image;verticalLabelPosition=middle;verticalAlign=middle;labelPosition=right;align=left;spacingLeft=20;part=1;points=[];imageAspect=0;image=data:image/svg+xml,PHN2ZyB4bWxucz0iaHR0cDovL3d3dy53My5vcmcvMjAwMC9zdmciIHhtbG5zOnY9Imh0dHBzOi8vdmVjdGEuaW8vbmFubyIgd2lkdGg9IjIwIiBoZWlnaHQ9IjE5Ljk4OTk5OTc3MTExODE2NCIgdmlld0JveD0iMCAwIDIwIDE5Ljk4OTk5OTc3MTExODE2NCI+JiN4YTsJPHN0eWxlIHR5cGU9InRleHQvY3NzIj4mI3hhOwkuc3Qwe2ZpbGw6IzQyODVmNDt9JiN4YTsJLnN0MXtmaWxsOiM2NjlkZjY7fSYjeGE7CS5zdDJ7ZmlsbDojYWVjYmZhO30mI3hhOwk8L3N0eWxlPiYjeGE7CTxwYXRoIGNsYXNzPSJzdDEiIGQ9Ik0zIDMuOTlMMCA2LjQydjcuMTNsMyAyLjQ0eiIvPiYjeGE7CTxwYXRoIGNsYXNzPSJzdDAiIGQ9Ik0zIDMuOTlsLTMgNCAzLTJ6bS0zIDhsMyA0di0yeiIvPiYjeGE7CTxwYXRoIGNsYXNzPSJzdDIiIGQ9Ik0wIDE1Ljk5bDQgNCAyLTItNi02em0uMDEtOEw1Ljk5IDJsLTItMkwwIDMuOTl6Ii8+JiN4YTsJPHBhdGggY2xhc3M9InN0MSIgZD0iTTE3IDE2bDMtMi40MlY2LjQ0TDE3IDR6Ii8+JiN4YTsJPHBhdGggY2xhc3M9InN0MCIgZD0iTTE3IDE2bDMtNC0zIDJ6bTMtOGwtMy00djJ6Ii8+JiN4YTsJPGcgY2xhc3M9InN0MiI+JiN4YTsJCTxwYXRoIGQ9Ik0yMCA0bC00LTQtMiAyIDYgNnptLS4wMSA4bC01Ljk4IDUuOTkgMiAyTDIwIDE2eiIvPiYjeGE7CQk8Y2lyY2xlIGN4PSI2IiBjeT0iOS45OSIgcj0iMSIvPiYjeGE7CQk8Y2lyY2xlIGN4PSIxMCIgY3k9IjkuOTkiIHI9IjEiLz4mI3hhOwkJPGNpcmNsZSBjeD0iMTMuOTkiIGN5PSI5Ljk5IiByPSIxIi8+JiN4YTsJPC9nPiYjeGE7PC9zdmc+;" vertex="1" parent="c2ikwcp3_SZ86CP-GAVo-1070">
          <mxGeometry width="30" height="24" relative="1" as="geometry">
            <mxPoint x="15" y="18" as="offset" />
          </mxGeometry>
        </mxCell>
        <mxCell id="c2ikwcp3_SZ86CP-GAVo-1072" value="" style="edgeStyle=orthogonalEdgeStyle;fontSize=12;html=1;endArrow=blockThin;endFill=1;rounded=0;strokeWidth=1;endSize=4;startSize=4;dashed=0;strokeColor=#4284F3;exitX=0.493;exitY=1;exitDx=0;exitDy=0;exitPerimeter=0;entryX=0.565;entryY=0.056;entryDx=0;entryDy=0;entryPerimeter=0;" edge="1" parent="14" source="c2ikwcp3_SZ86CP-GAVo-1070" target="c2ikwcp3_SZ86CP-GAVo-1060">
          <mxGeometry width="100" relative="1" as="geometry">
            <mxPoint x="191.70212765957447" y="210" as="sourcePoint" />
            <mxPoint x="304.46808510638294" y="210" as="targetPoint" />
          </mxGeometry>
        </mxCell>
        <mxCell id="c2ikwcp3_SZ86CP-GAVo-1092" value="" style="strokeColor=#dddddd;shadow=1;strokeWidth=1;rounded=1;absoluteArcSize=1;arcSize=2;" vertex="1" parent="14">
          <mxGeometry x="20" y="157.5" width="190" height="175" as="geometry" />
        </mxCell>
        <mxCell id="c2ikwcp3_SZ86CP-GAVo-1093" value="" style="strokeColor=#dddddd;shadow=1;strokeWidth=1;rounded=1;absoluteArcSize=1;arcSize=2;" vertex="1" parent="14">
          <mxGeometry x="100" y="197.5" width="100" height="45" as="geometry" />
        </mxCell>
        <mxCell id="c2ikwcp3_SZ86CP-GAVo-1094" value="Firebase&amp;nbsp;&lt;div&gt;hosting&lt;/div&gt;" style="sketch=0;dashed=0;connectable=0;html=1;fillColor=#5184F3;strokeColor=none;shape=mxgraph.gcp2.firebase;part=1;labelPosition=right;verticalLabelPosition=middle;align=left;verticalAlign=middle;spacingLeft=5;fontColor=#999999;fontSize=12;" vertex="1" parent="c2ikwcp3_SZ86CP-GAVo-1093">
          <mxGeometry width="22.4" height="30" relative="1" as="geometry">
            <mxPoint x="15" y="7" as="offset" />
          </mxGeometry>
        </mxCell>
        <mxCell id="c2ikwcp3_SZ86CP-GAVo-1095" value="Cloud Source&#xa;Repositories" style="sketch=0;html=1;verticalAlign=top;labelPosition=center;verticalLabelPosition=bottom;align=center;spacingTop=-6;fontSize=11;fontStyle=1;fontColor=#999999;shape=image;aspect=fixed;imageAspect=0;image=data:image/svg+xml,PHN2ZyB4bWxucz0iaHR0cDovL3d3dy53My5vcmcvMjAwMC9zdmciIHhtbG5zOnY9Imh0dHBzOi8vdmVjdGEuaW8vbmFubyIgd2lkdGg9IjQyNCIgaGVpZ2h0PSI0MjQiIHZpZXdCb3g9IjAgMCA0MjQgNDI0Ij4mI3hhOwk8c3R5bGUgdHlwZT0idGV4dC9jc3MiPiYjeGE7CS5zdDB7ZmlsbDojNDI4NWY0O30mI3hhOwk8L3N0eWxlPiYjeGE7CTxwYXRoIGNsYXNzPSJzdDAiIGQ9Ik00MjQgMHY0MjRIMFYwek0yMTIgOTcuODQ2Yy0zNy44ODQgMC03MC4xNjQgMjMuOTktODIuNDc4IDU3LjYwOGgwbC0zLjQwMy4wMDFjLTQyLjYzNCAwLTc3LjE5NiAzNC41NjItNzcuMTk2IDc3LjE5NnMzNC41NjIgNzcuMTk2IDc3LjE5NiA3Ny4xOTZoMCAxNzEuNzYzYzQyLjYzNCAwIDc3LjE5Ni0zNC41NjIgNzcuMTk2LTc3LjE5NnMtMzQuNTYyLTc3LjE5Ni03Ny4xOTYtNzcuMTk2aDBsLTMuNDAzLS4wMDFDMjgyLjE2NCAxMjEuODM3IDI0OS44ODQgOTcuODQ2IDIxMiA5Ny44NDZ6IiBmaWxsLXJ1bGU9ImV2ZW5vZGQiLz4mI3hhOzwvc3ZnPg==;" vertex="1" parent="14">
          <mxGeometry x="59.90000000000009" y="257.5" width="42" height="42" as="geometry" />
        </mxCell>
        <mxCell id="c2ikwcp3_SZ86CP-GAVo-1096" value="" style="edgeStyle=orthogonalEdgeStyle;fontSize=12;html=1;endArrow=blockThin;endFill=1;rounded=0;strokeWidth=1;endSize=4;startSize=4;dashed=0;strokeColor=#4284F3;exitX=1.007;exitY=0.529;exitDx=0;exitDy=0;exitPerimeter=0;entryX=0.54;entryY=0.988;entryDx=0;entryDy=0;entryPerimeter=0;" edge="1" parent="14" source="c2ikwcp3_SZ86CP-GAVo-1095" target="c2ikwcp3_SZ86CP-GAVo-1093">
          <mxGeometry width="100" relative="1" as="geometry">
            <mxPoint x="-250" y="57.5" as="sourcePoint" />
            <mxPoint x="-150" y="57.5" as="targetPoint" />
          </mxGeometry>
        </mxCell>
        <mxCell id="c2ikwcp3_SZ86CP-GAVo-1097" value="Deployed front-end app" style="text;html=1;align=center;verticalAlign=middle;whiteSpace=wrap;rounded=0;fillColor=none;fontColor=#999999;" vertex="1" parent="14">
          <mxGeometry x="20" y="157.5" width="130" height="30" as="geometry" />
        </mxCell>
        <mxCell id="c2ikwcp3_SZ86CP-GAVo-1099" value="" style="edgeStyle=orthogonalEdgeStyle;fontSize=12;html=1;endArrow=blockThin;endFill=1;rounded=0;strokeWidth=1;endSize=4;startSize=4;dashed=0;strokeColor=#4284F3;exitX=0.397;exitY=0.998;exitDx=0;exitDy=0;exitPerimeter=0;entryX=-0.008;entryY=0.532;entryDx=0;entryDy=0;entryPerimeter=0;" edge="1" parent="14" source="c2ikwcp3_SZ86CP-GAVo-1092" target="c2ikwcp3_SZ86CP-GAVo-1056">
          <mxGeometry width="100" relative="1" as="geometry">
            <mxPoint x="290" y="270" as="sourcePoint" />
            <mxPoint x="390" y="270" as="targetPoint" />
          </mxGeometry>
        </mxCell>
        <mxCell id="c2ikwcp3_SZ86CP-GAVo-1100" value="" style="edgeStyle=orthogonalEdgeStyle;fontSize=12;html=1;endArrow=blockThin;endFill=1;rounded=0;strokeWidth=1;endSize=4;startSize=4;dashed=0;strokeColor=#4284F3;exitX=0.998;exitY=0.66;exitDx=0;exitDy=0;exitPerimeter=0;entryX=0.009;entryY=0.636;entryDx=0;entryDy=0;entryPerimeter=0;" edge="1" parent="14" source="c2ikwcp3_SZ86CP-GAVo-1092" target="c2ikwcp3_SZ86CP-GAVo-1060">
          <mxGeometry width="100" relative="1" as="geometry">
            <mxPoint x="290" y="270" as="sourcePoint" />
            <mxPoint x="390" y="270" as="targetPoint" />
          </mxGeometry>
        </mxCell>
        <mxCell id="c2ikwcp3_SZ86CP-GAVo-1101" value="" style="edgeStyle=orthogonalEdgeStyle;fontSize=12;html=1;endArrow=blockThin;endFill=1;rounded=0;strokeWidth=1;endSize=4;startSize=4;dashed=0;strokeColor=#4284F3;exitX=1.01;exitY=0.656;exitDx=0;exitDy=0;exitPerimeter=0;entryX=-0.007;entryY=0.451;entryDx=0;entryDy=0;entryPerimeter=0;" edge="1" parent="14" source="c2ikwcp3_SZ86CP-GAVo-1092" target="c2ikwcp3_SZ86CP-GAVo-1066">
          <mxGeometry width="100" relative="1" as="geometry">
            <mxPoint x="290" y="270" as="sourcePoint" />
            <mxPoint x="390" y="270" as="targetPoint" />
          </mxGeometry>
        </mxCell>
        <mxCell id="c2ikwcp3_SZ86CP-GAVo-1102" value="" style="edgeStyle=orthogonalEdgeStyle;fontSize=12;html=1;endArrow=blockThin;endFill=1;rounded=0;strokeWidth=1;endSize=4;startSize=4;dashed=0;strokeColor=#4284F3;exitX=0.427;exitY=-0.003;exitDx=0;exitDy=0;exitPerimeter=0;entryX=-0.001;entryY=0.593;entryDx=0;entryDy=0;entryPerimeter=0;" edge="1" parent="14" source="c2ikwcp3_SZ86CP-GAVo-1097" target="c2ikwcp3_SZ86CP-GAVo-1070">
          <mxGeometry width="100" relative="1" as="geometry">
            <mxPoint x="290" y="200" as="sourcePoint" />
            <mxPoint x="390" y="200" as="targetPoint" />
          </mxGeometry>
        </mxCell>
        <mxCell id="1038" value="Client" style="strokeColor=#dddddd;fillColor=#ffffff;shadow=1;strokeWidth=1;rounded=1;absoluteArcSize=1;arcSize=2;labelPosition=center;verticalLabelPosition=middle;align=center;verticalAlign=bottom;spacingLeft=0;fontColor=#999999;fontSize=12;whiteSpace=wrap;spacingBottom=2;html=1;" parent="1" vertex="1">
          <mxGeometry x="355.5" y="270" width="70" height="100" as="geometry" />
        </mxCell>
        <mxCell id="c2ikwcp3_SZ86CP-GAVo-1050" value="" style="points=[[0.35,0,0],[0.98,0.51,0],[1,0.71,0],[0.67,1,0],[0,0.795,0],[0,0.65,0]];verticalLabelPosition=bottom;sketch=0;html=1;verticalAlign=top;aspect=fixed;align=center;pointerEvents=1;shape=mxgraph.cisco19.user;fillColor=#005073;strokeColor=none;" vertex="1" parent="1">
          <mxGeometry x="365.5" y="290" width="50" height="50" as="geometry" />
        </mxCell>
        <mxCell id="c2ikwcp3_SZ86CP-GAVo-1075" value="" style="strokeColor=#dddddd;shadow=1;strokeWidth=1;rounded=1;absoluteArcSize=1;arcSize=2;" vertex="1" parent="1">
          <mxGeometry x="1000" y="140" width="110" height="60" as="geometry" />
        </mxCell>
        <mxCell id="c2ikwcp3_SZ86CP-GAVo-1077" value="" style="shape=image;imageAspect=0;aspect=fixed;verticalLabelPosition=bottom;verticalAlign=top;image=data:image/png,iVBORw0KGgoAAAANSUhEUgAAAcQAAAIACAYAAAAczhwgAAAABGdBTUEAALGPC/xhBQAAACBjSFJNAAB6JgAAgIQAAPoAAACA6AAAdTAAAOpgAAA6mAAAF3CculE8AAAAB3RJTUUH5QEdDgQQZgt+CQAAAAZiS0dEAAAAAAAA+UO7fwAAi4NJREFUeNrsnQd4VGXWx0ewYi/Yy66r66rrup/f7qq73+66qyJ2FHvvIFVQqg0QAUlCqKH3Kh1SCBDIlPTee+89mbTJJDM53zkvgwK5dzJJps85+/weWMUkzL33/O/7vuecv0LBYZMAAOIC5ApkKHI78jvkPuQx5H0TPyLLJVhwxp95DnkA+b3p69yIXIlcyJ80BwcHB4cziuAlJsH6K/IiMgrxRvYg8Ugx9D+6kXokCQlGliLjkBHIw8hvkUuR8/hKcHBwcHA4QgQvRx5FPjKJ3z4kEWkH+0QHkoocQhYjn5sE8kq+OhwcHBwcthbBC01bmJOQ3SYBrAPniCYkATmAzEGeQC7mq8bBwcHBYU0hpC3JT0xblgUm8TGCcwZtsbYhZUgI8ilyNV9FDg4ODo7+COAg5FrkH4iv6QzPWQWwt6CfuwbZgPwTuZ7+fnyVOTg4ODh6E8ObkJeQHUjVgJSo2whtnS1Q314NZdoCyK1PFaRVx0BiZRgkyJCK//70ny3V5kNNa7n4OoZugzW2VQ+bCn9uQwbzFefg4ODgOFcIaeX0GrLZJBx9DoOxCypbSiClKgrURQEQkL0NtqcshZWxs+EnzUSYGfKuYGLQCPjs8DDkSUkmBL34y5+dr5kAS6Nmiq9zKGsThBYegrhyFQplAegNHf0VRlrx7kTeRW7mClUODg4ODhLCi5DhphVhWV+2Rrvxf80djZBeEwfBeT/DhoSfYGHYJPj6xPsw8cgIGOX/lKzo9ZfxQS/AtGNvwgIUynUJ8yEoZweuKKOhqaO+P1upFaYq1ddZFDk4ODh4VbjGJISdlipJp0EP2bXJsCNlGXx/8mOYigJFq7pR/sOsLoDmIMElgZx67A34PvRjWJ+wADJrE6DD0N5XYawyrYx/x3cFBwcHh+eIIBXMXGPq28u3ZEXY3d0NLXotlDTlgn/2Vpgd+imMCXjG7gLYq0AeHgaj/YfDzJD3YE/6ashvyMCfuwm6jF2WVqeWI1OQW/h8kYODg8O9xZC2R/9tOj9r7fVMsNsAde1V4kxwZcxssQ3qTALY6/Zq4POwIuY70BQHQVVLKQqjRYtg+kPHTGPjLuC7hoODg8P9xJAmy4xFUnpfERqhtq0ClEX+4BczCyYFj3QpIZQ6d/SNnAYnCvaLoh8LoxSZSEU3fPdwcHBwuI8Y0nDtZZZMlaH2BhKORRFTUQhfdmkhPJcvjrwE3uFfikrVRp1FA3a0yCbkz3wXcXBwcLi+GP4FCUJ0vWX/vPp0WB79rRAOdxLCnsL4slgxUnWssffeRurt0JicOvhckYODg8PFRPD0uLX3kEJTwYhs72BFcxHsSl0Bk4NfEYUp7iyGZxbgTAh6QbSKlDcX9na+2G3qzSQXj0v5DuPg4OBwHUG8wlQtWW0uy1PlaFhxMMxRfuYRIijHtONvwsnCQ9DU+zYq9XPMRK7ju4yDg4PD+cXwSlPSNjvGhVZFu1L9YGzAsx4thmdWpG5NWgQlTXmiqMhMUHWuF3KX2908i9Q3IrcpfNR3KXxUDyN/V3grhyFvSDBB4a2a0neUXyBvnfW1vFRP4ff6h/h+PqoHxc9AeIUO5Seag4Ojv2JIY8h+QBrksjltDaZUR8HiyOmil5DF8Ffo5cArfDIkVob3toXaYmrkv9tlbo6FoReg+PzWJHTP4e9HIzMUXkovFKqNJvyRI8gJJA5JRLKRSgn0CPSDTqTqnK+VgySZvl+46WcgDpl+rpX4s84SYuqjGok8hYJ5j2KR6gaFbyif63JwcPQQw1uRlabKSOnqEINObA1+feI9GG2DsWpucbboP0xM3qGRcDSQoJft051O15bhG3o9rvAeRRF5BwVkOrIMIXGJRdKRPKQUqUeakY5+Cps9MSBtSCNSjhQjmUgyEoN/v8OIL640R6NYPqHwReH3DT2fswIHh+cJIXGjSQwN5topqHDm84CnWfgs4HP/4bAmbq5oz+g2U5NkquC9wQ7bmQoUuotRAC7H5H8tcovCR3k/CsDb+M9+RPaYhI6EQ2dawXWaxKTbBURvIHSb/p5609+97ZTYK48jW/D3X6FYvoi/3oUr4hvxn12Nn9sQ/EzZBoyDw80E8UqTQ7zsmSHZL62Ln89C11dRxJeHlbGzoLy5qDfrqT1WL7TxDR2ESfsKTOS/xQT+ECbzp/H/z8RfVyAh+M9qPEDorI+XklaWB5D5yOv4//+Jn+X9+PubFQtDL+KMwsHhumJ4ATJDTgypOKRUmyfEkItn+nmuGPgsLImaATl1KeZ6FtuQubRSH+Aq8CpMzH/EBP08MhZ/vwg5jKQhXSxoNqEaiUC2IXRO+QG+hDyh8FL/Bl9KeHQfB4cLieGHJjd4yYHchY3ZmMxnshgOEDpvJVurgoZMc9untciXfe5T9FI/iAn4fUzEtO25G1EjhaZtPxYs+9NoOp8MFsU8XspxeH3+havzq1EgOfFwcDipINLw6Qy5pnua2UljyvjM0HpWUz+oRkN1a5m55n2af/qK2Yk2C0OHYJKldoavMeEeQ7JMqxQdi5FTFvM0IPlIPF63tSiOHyi81ffw6pGDwzmEkOybHkHC5cSwVd8M8zXjnc6eyfUZBnOUo6CsucDcSrEA+fv86JJBuPoj8btG4aO8FxPqeyiCW5FK0+pPz2eALimQVJXbYmoRmYfX9zG8ptejUF6G15tbQDg47CiGxG+RfeYKaNbGz2PxsuH2KZ0pkp2UmbaM6HeDMkdgkvRGaAtUy2LiziKpzMTrvAp//zb+/i/46024gryQMxYHh+3PDal4Qy+VhWn02NYkXz4ztEMDP7VkmNk+hSXxZZ1DloSxYHge1Oe5FZmGq8fhCh/lrTw8gIPDNoL4rKl4o0foutogMGcHTDryMouWnapPd6ethNbOZklBrNN1wrtBWSwQngv1gOaemv6j/B5/fQSFkds6ODisJIY0li1err2Cxo3RhBUWK/v6K4aXHAWjxOxTYzdATGUzPLI9gcWBaTWNwAtCcRyn8FHdzatGDo7+i+GFJoNfya3SUm0+zPZwxwpHQZZZxdpcyVWi3tANK5Mr4Jrl4SwKzOmJOrpTZ8o0RUf1Gf46FH+9BAXyPM50HBy9i+FgUyl/kZyF0/Kob1icHAhV9DbKWEfVtHfCR8HZcKGvmgWBkRBIJc1lXYi/Pom//kaxSMnFOBwcZgTxTuSA1JxSg9EAAdnbWJScoMiGrLTau1olRTGsXAv3bYxlAWB6GwgQgMI4CXlUsTD0Ms5+HBxni+ElyFg5O6fsuiQ+N3QS6DpElYVIjnfrMnbDDHUhrxIZS9CJIQCnpuS8qvBRXs/bqRwcpwTxLlMDfo+gLTq/mFkw2n84C5KTTLJZGvW16E+UnBzUqoe71sdwwmf6UqVahqtFlcJLNRFF8VrOiByeXkjzo9RWKa1CQvL3iSpHFiPnsowKyt0JeoO08YhfUgUM8rH/KpG+5+VLw+DOtdHwRkAm/hzl4J9fB7Xtnb+QVNMCe3NqYbqmAB7dkQhXLw+Hi3w1cB4LkzMU4rSbWji+UXipyZljCMKrRg6POzuskxqZmd+QAT+qxrAIOSHTj78tnDGkRrvV67rgz1vi7SqEt66OgpcPpUNQQT00dnSBJUFbvBn1bTADxfEv2xLg4sUaFibnAVeNqrW4cnwMf71B2IRxcHiAIHpL2rR34pt8+hqxGmEBck7IbqvT2LNDphOFZhWuEu0hMFctC4cXD6TB7uwa0HUZob+R3dAGX6ny4W7e7nU2apENKIyvK3xUt7IwcrizGN6C5PdcG3ZDbn0qTDn2OguPEzMu8HlxnaQFph3+uSvJpsnyllVRMD+6BAqadGCUn7dqcegMRjiYVwdP7E6GwT5cGORk26k0LH4PiuL7ikXKqzl7crijIH5lMp09p82iC3al+bHouAB+sbNkmvWNsDCmFC5YZBthuWJpOOzLqYVmvQGsGbSNmlzTCq/6Z4izRRYjp8J4ShiVwSiML+Bq8WLOohzuIoa3UeualLVTfXsNTAoeyYLjEhNsRkJ6TZykuERVNMNftlp/pNt1KyJgb3atEC9bBC02q9s64c2ATF4pOq8wNqIwHkVhfFbho7xGsSj0fM6qHK4qhuR1OEpqgDfNy9yTtorFxoVsoqgtRtfV3kNY2roMMDYk16qrRBoPtzW9SpxT2jpKmjvgr9t4RquTo0dhjEZRfB/F8SY+Y+RwRUG8Ftkk1WpB/W0zQt5hsXEhZoa8CylVUZKiciC3Dm5fHWWV5DdksQYmheaL9gl7RUhxA9xipZ+fsSlkRr0dxfEV/PV6zrIcriSI/4ekSCUg/+ytMC7wORYalxrp9gzsy1gHXcaeQkXi9a9dSVbp8/sbrtbiqlrAntHWZYRZEUU2OwtlrF58U45sRIYrvNVsQ8Xh9GJIjfgTkB5d3a16LfhGToNRh4ex0LgYXuGToUxbICkq09UFcOEAC1SuWBYO86JLhLOGPYO+W0J1C2+duhZdpwyMlX4KL809nHU5nFkQye9wl1TySa6KFNtvLDCu6ZkYXXZSslFfVdok+gUHkuT+tDkOylo6wBFB7Rg/RhVz1alLni+qClEYZyp8lDfj789X+IZyEuZwGjEkHkaqe5a7dwpndp5Z6rpsTfaFFn2TpKg8tLX/k2uo0nPciVxwZISWNMH9m+JYZFyXNBTGj/BXFEY1J2MOpxBE8jz8UCrh0HYbbbuxsLgu3578UHbbdFZEcb+TGa3MQksaHSqI1IbxwoE0FhbXphnZisL4H+5h5HAGQRyCbJZKOHHlSph4ZAQLi4sP/Y4sDRGtM+dGRLm234mMBnC3dhrA0TFNXQAX87apO5CFzFL4qO5FYRzMmZnDUYJ4FbV39Zxq0gH+2VtYVNyAzUk+0CnhglGDK6ybV/WvfYEKWpwhNqRWwVC/CBYU96AFUSHvK7zVl3J25nCEID4gNZmmQVcrmrtZUFyf70I/gvbO1h5i0oIrPHKj6E/y+uRojlMIIvVU3rLKNj2J1JZy/iK12B4eskQjbKxOc9mSMPHP6N8Nxj/DVlVWnXijFaPgFoXeJYpuODjsKIgTpRJNqTYfZoS8zYLiJpQ3F0k6YPjGlfUrcU1R5juFICpLm+C3a6OtmpSpYOjmVZHw9x2J8EVonnDtSKltPWssnVZvgLS6VtidVSMm/zy6PRFuWhkpBJRFzVooyW5qIv7K02447CaIO6WcLZKrolhI3Ahlob9kP19IcWO/WhecRRDJXPgeK9lDkYfjKSPjDGFY3GShh+Mpv8lO+BnF8Z2gTLhjTTSLmVW3UZU7kMfx91x0w2FzQczo2W7RBQcyNrCQuBFr43+UTOSJ1S1w57oYlxXEo4UNKEAD3zIdsiRMbB8fyK2FuvZO6O+oAZoCtB+/xvB9KXAhrxathQFJQVGcoVgUeg1nbQ5bieFNUsO89QYd+ER8xULiRnx94n3JBJ7fqIPHdyf3OUm9eDDdKQTxoBXOEKlK9bvwQijUWsfDkb5CZn0bTFEVwFXLw1nQrEcTiuJO/PVhzt4cthDEJ5AeXdu6rjaYeuwNFhI3s4Sqa6+SXNF8ejSnz8npng2x0O0EgugdWwpXDmDiDk3rWZlUbvUWEvpsGju64KeYEq6Ctf4IuGwUxnGKRcqrFD7q8ziTc1hLEMnuqUf5obajgUXEzaB+0szaxB6Ju900KLuviemSxRrIa2x3qBhSkQuJeX/9Ea9dESEKZgw2tq3yjiuF61kUbTECbo9YLbLvIoeVBHG+1EDv3Po0FhE3Y1zg86AqCpBM2KuTK/osKuQ0sS6l0qGCmN3QDv/px3bv6cECcyKL+1Q409/oMBjh+3B257ARmbhafEOxMPRyzugcAxXELVL+h+ElwSwibsaYgGfgUNYmyYS9K6tGmPz2rSJTBSMOptvFFFgudmfX9muwALVGvOqfAUVand1+1pr2TnhyTwoLmG2oRH5U+Kju5qzOMRBBPCb18O5JW80i4maM8h8GfjHfSybrQ3n9K0yh/r+wMq1DxJAqQan/rz99f3etixHtJtYooOmbsXEjXO8XyQJmG1oRf1wt/p17Fjn6I4bnISclt9Di5rCIuCE+EVMkE7W6rAke2Nx31wjyUyRR0nUZHdKQ35/VIW1bjsGf2REr2wZdl/jeLF62LLhRFuKvoxXeau5Z5OiTIN5NPqtSD65fLI9sc09B/Aq6JVZFsZXN8HA/zXZvWx0F2zKq7Sow5MH47P7Ufv28VNySWN3qsG3eY0UNNhs1x5yBl2odiuOtvFrkYEFkJFmgmQiteq1VBZH4965k4WBvD02kylJqZeivMfDT+1IdWghU2twhzi9ZtOyyWgwQW6gLQy/ijM/Rb0H8UT2WBcQNmav6HKpby3pc7/S6NvjPz8n9Tj50jvf+kSyoatXbXFC24mr0xpX9P4dbHF/mUEGklfQPkcVw8WLPtqyivz/tLtA59IOb4+C/u5NF0dHr+LLwydHsPkEThui///euJLh/Y5z4mled6k0lUYzCX99U+Kgv46zP0S9B5KZ8zxJEWrWMODgwo91Ll4TBx5icbHWeSEJCzhY0EGAgzhK0knV07Muphds9ZN4ptbf879YEeP5AGkw4mQtzIopgR2Y1BOTXg6q0CTRlWoitahaTfaiNhu5FGhbRF6hamP57erGLrmwWX5NG+tH9siW9yrg2paJwa3rV6tZOw/P48f8e4RYNjh6CSLZPKSyILIjlLR39toE6963/s2M5IqlZc/dUb+imxAa/WxcjBnAPRLQpgTo6TpY0wn0bY91C8M4zteBQHytNDKKV2ufHc8T0n4gKLeQ36aCsRS+8N8khpA1fmOxZz2To7hbDJ1AM9fhta/AfFSN5pgr7NchHyB+R85HByCAqOGSF8DxB/AvtlrEgsiBaSxBPWyc9tDUe9mTXQp2uc0DJj1aF9OY/KTSv32eGZ/I/W+JB22FwuCAWokg8tivJJQWQtsevXR4hBqr/ZVsCvBuUBcsTyiClphVcPBoRFbLMJJL3I7cgV5BIsmLwlinDgthvqJqTtlBpa6y6rW+rMtp2zUAhXJ9aCQ9ujrfaz8SC2D8u9FWL3k06Z6YzO5pQRFuTzXoDuHG0mFaRC5F3kUeRWxEu0PE0QZyjHMUC4kGCmIXi88TuZJskU2ox+OBIFqxKrhBnO5WterGNdW5QciUTXvIUnKkpFFtvl1i58IQFsW/9mr9fHyOKXLxiSyGwoB4K8OfuMnaDBwZVi1F58m5Kj8iLJnHklaMnCOLy6G9YQNyQ+erx0NRRb/W2C0vGvNFouD9uihPC+xKuRmn1+F14EUw4mQevYdJ9Zn8q/A1/hltXR8EFvraZ+cmC2Pt54A1+keJ6rEqqEFOIqOfTPoPaO6G8uegXihqzIa5chSh7EF+hgdz61LP+fG1bJRiMXfYSxwLTUJNFyGO0rcqKwn2IjKs15od/BcZuo90FUe4sikx5adrNeXb6niS2DR1dDhdE+rzpnNVZhJBW4o/9nARLE8qEgwkVHumtthLsFv/rNOihoqUYkqsiISR/H+xOWylMq+drxsN3Jz+Gb09+BNOPv/0L046/BZODX5HkS4SOdc788zND3sWv85H4WqtiZ8PmJG/wz94CoQUHIaUqCgWzQtz73aLcy2qrXHpbKKdLivyA/Bm5AGGBcUFBvNh0iCwxuu0HFhAPGt0WWa6Fh7bEe0QbAFXAOjpodiz1yjnqM6BKXWqHoP6/GZoCcV5rGOBcV72hQ9jG1bSWQ0lTHq7i1EL0lkbNdJqahM8DnoYFmglCMAOyt0JM2Uko0xZAfXs1tOqbxSrVCqFB3kd+ywU5rieKkrNM96bzcG93HO69Elf+cgnaU8aJbU6rcqgY0sKLTI2pBcQR54JUHENb1n5J5eI8dyACWIOrLrKKS6wMg8Cc7bA8+luYEfKOEB5XeS5G+w+HeepxsDnRG47n78W/SzgUNmYKM+0BCCRtQ2SatlSp9/EWVhvXEMSdIGH/pC4KZBFxQ/un/RnrJJ9eslEausIzDGxHHs5wqCBSKwqdn9rz70ytMH/C1eDEk3miOKZe19WvTUNdV7s429MUB+HqbxUsi/4Gvj35obi33OU5GR/0gigqXBkzS9il0SqSVryG7n6fPVcju5BPkDtYdZxbECUNglOrY1hE3NAgOLTwkOQTuzal0mPMa+kc0Z4+iOdGeLnWrk35VEg0O6JItEn0xwyZzt2y6pLEFuPK2NkwVzUGJgWP9Ihn5nNcPU459oZYQW5MXAjKQn8o1eaL1XF/3oWQI8hXyO94K9U5BfFTpEdHLVUisoi4FxOPjICs2sQeTylNDpmFCdNjZmj6aoRAOCJoYspP0SX98nDsK79bFw2+8WWQ09BOU1r6vqxpLRNbiN7hX8LUY2/CeHyhGnV4mMc+P6P9n4IvjrwktoTpM1EWHoYWfVOf3y8QramFYzpyKauQcwniE6R/PbdG2kSVFwuJ+0Bv9ZUtJT2eUNo+G+dhHn334wotvsr+M00Ta1rFGZ6t/l5DFmvg/k1xsCKxHBo7LN8WpVVgW2cLVOH9EZizQ1R+ntoGHcbPjtyZPH42tIKkVXN02Ulx5tje1WqqYrWw/BaA3sy+RO7ihn/nEMTfmJby5xyY68ArfDLf+G4EvdlKRV6jDh63UVO+MzstjDuRKwx77dbZbeiG94KybNY2QWeE09UFfSqUoaKRqpZSURG6LXkxT6gawNYqtXzsSvWDpKoIaNLVSbY3mSnAofa3z02Dx1mYHCyKuVIPyq40P77Z3QiqAJSKJFy1/H59rEcJ4ukJOhtSK23mznFu7Mqqsco81nMHHlD7xuTQfHE22WGw7O9CDewFDZmiMnRx5HT44sjL/IxYCdpWXR+/QJw3Ut+lodvily46ugpGPkSGsjI5ThD39FjL49tNbHko3+BuxNG83ZJ7NieKG2HIEs/05ntgUxwcL2oYcA9ebxFc2GD1Qhpa5b4VmAlHCqlq1LL2AGqOz29IF/2BVBwzNvBZfjZstJ06CV8yfgr7Ag5kroeippy+3C61yHbkSd5GdYwgTpe6KnQRvzr6Gt/gbgKtCHruBHTDqqRyjzWppRXWPetjIL6q2WZiGIIvHOQKMdjHeoU096K4bk6vgqo2PRgtEHPavitszIJ18fPEVJexASyE9qvufk5M0dmXsVZMy7Ew6A0n3zRY/FpWKfsK4t9M1U9nF1u0V4s+I76pXR96INs7exaRUPXh2wGZHu3cTty8MlLYVdGAcWutFamohYYAkIfjeVaaLnP7miiYpi6wyG+yG4WSCmUKGjNhdewcUSU5iotkHLpq/Oroq2J1XqLNg46udkurUmk03KskjMA+jXYRxKuQMqlJFP7ZW/lmdgO2JPmK7bJzg4pKHDlCzJkgj78pqgJIrmkVPoz9Hm5pMEJybatogr9iWbjVtkef2psCQQX1ojintyAhTKuOga3JvqLdhp8B54JW6bRiLGzMFhX9lsxEMG2jkgXVJaxathXEIcgOqatA0+bpkJhvYtcmrPgIGCUmbcRWtbAYngEVvTz2czIsiiuFxOoWi8Tn11YlI8Th57kgpgT+vjPRaj/TnfjCQnZYlg4TyK5NEtWO3Dbl/MxWfgaHszaLeaoWFN/QA0yNxKOQ67ga1XaCeL7pQ+4RNLKIDob55nXtt1F6E5WKedElLIQSXL40DB7ZnghjQ3JhY1oVRFc0Sza3a/VdQjhXJ1fCR0ez4a/bEqw2o5RcQJ7ckwL7c2vF8IRex6C0V4mq0dmhn4k2AL73XWRUXODzotH/RMEBS1eLtIW6BfkDq5dtBFFhWor3mHpM+9w7UpaJAbh887omGxIWChcCqfinC7m2O8op/roVEWJbmfr8yLLpCRSpZ/alCncQqlKlM0LabrXm9BlqsCcxJium3gx5Oww6iC47AQvDJok5nHzPu25V6qKIKZLFbzJFNwmms0WuRLWBKN5k2qPuEQkVGrHK4BvX9ZiACTKqNETyiUqtbRUWQCx8fTfRtZV/I4kqCezhvLpehZB6halylKyMTq0IuWDG9RmGz+yLsD1lCVS1lllieNyIeCO38WxU6woimVpOMLlB95hrSm8uXKHmeniFTYZSbYHkkzQnstjqjeJM/7liaTi8eDBNbM+arx41QkN7jWj85rYod52bOhzmq8eLl9nWzmZLVov7kX+xKFpXFP9r8vDqEXTwy028rvdQ7UxdLsbwSVWX0vnUeT4sRM7A9X6nKlxpjJ65hSFVCqdVxwqned4edX+oTWNX6grhsGFBJCFv0+KG1cw6gjjU5I8oWVzzJV4cvkldq5iGjFul4khhA7dbOIsd1aooWJlUDjVt5qfNkLNCcO7P8N3Jj2GU/1N8j3vKnNSAp8E7/CuxWmzvbLWk4GYGcjUr2sAF8TxTtWltj3rfbgNsSPiJb1AXsqqhKfwdEqtD6rH7IjTPY/wPnZnf4EsJ+RS291JFSkMy6HpyC5SHFt34DxOD1/ekrYJGXW1vokj2UquQ21nVBi6KdyIRpjGXZwVZB9EYIr5BnZ/JwSMhqzZJ8mmhXrmHtyewIDm0elUDw/akiMKm7l4qSGPKQoVTCSVFvrf5GISqibPrkkVRVS89iyeQ/0EGs7INTBRnmyYjnFPV1gXbk5fwjekC+EZMlZ2i4hNXKuyCWJgcVTwTBu8EZQnjXnNj1+raquBg5kZ8uXmF72nmLKYdfxPCS45Ci17b22oxBnmKRXFggkieXAVSfpZ59WnCPZtvSudlTMDTkFQZLvl05Da2w+O7U1iYHDgeblJoHhT3MnUmvyED1icsECX4fE8zcobfe9JXQ0VzUW/ei2S18RpyGatb/0XxJ7kZiVS5yDek87I06mvh3C3lbLEzs1qU97M42R9qticn+94MfFOrY0TJPU+bYSyZckMGDPQC1S3vetJtWuCMZVHsvyDeQdOgen6y3WL/eo7yM74hnbJM+zXIrE0Q16lnP2mXmLLC4mR/aIvaN67MbPEMNWGriwLh25Mf8r3MWF6Fii9OP6rHnnruzYsiGTh8xsPB+yeIFyKzpGyhqDH4WN4e3s5xwvLsA5kbJFeHpxzbq4WFEAuUfafa0Og3P1wZtknMQj39ktmsbxLOMnxeyPR39BsV0lGbVafR7A5EEzKGRbF/ongfkib5qXbUw/Lob0V5P9+QzvFA+EZOg4rmYmkL7vZOeGBzHIuUncXwllVRsCyhXHIw+OmoaasQxxB09sv3MjOwUY0vwvH8fSI/mwmq5hpHjhmscn0TRLKF+op6giXHIlSGw5Sjr/ON6CRbpbTdJmXxRGeHc6N4TJu9uWllJCyNLxOmw7Ji2FoBq2LnoBg+w/cxYxXI//LntJW99StSVdcP5IXLStc3UbwbCZYbI7U3fS3fhE6wVbop0UtMMpGK+KoW+NMmXh3aE7KAWpVUgddEXgyrWkphddwPfA8zVocGOPyc5gfNHY3mRLEamciFNn0TxMHIW0ip3NbpQvZLdLDJ6KdQ1VoqPQq/ows+P57Dq0M7F9AsjjdfQFPeXAh+MbN4m5Sx6fbp2vh50Crfq3i60GYUnyn2IQ7m1V2d1dB+tMvYs4SJCgLyGtLhu5Mfsf2Mg8quqeRaYrAQGPBybU6vgqF+ESxUdoLstFaYKaChfrGsuiSYpx7L5++MXUY4Lo6cDk26esnK8zMspKjQ5mJWu95iYegF+KCPuGdDbH5CdYusL1tEyVGYcuwNvgntfYCet1fy3JBeXcjJ/V9sAGw3rlwWDnMii0Crl/ewo9L4OcpRfP8ydh33RgWQVS0l5toyqNDmdZ5oYy58QwcpvJV/QULxgTeMOJgmtuDkJvHvTV8jDGn5JrQ9NFN2S9Ii0MqcEbTgCmX08Rwe4G3Hpnv6vMvNNN2TY8xs7t9lHDK96hlRvEVb9WZEMQ95hoVPLryVNyFb8IHX00NPydU3vkz2ga9tq4DNST4wNoB9E229DeIX870Yti63DbIxrYon0tgJ6u181T8DchrbzRbQ0AQhvn8ZR0F+tnSmSObSMkGH3tHIIyx+54aP+nyFj2oCPvAtZ/ZV/X59DATk15spIy/nIhsb9xsu0EyAwsZsWTFMqmmFO9nr0G7csyEWirUd8qV8rWWwOvYHLqBhnGJnaUfKUug0yN6vtMWxl7oLWATPEkSxVVrb821YJc6l6DxRauVNSZreQOaqx7BdjQ2YqxojhvlKbXvQPylt7oAndieL68RiZfvGe/IzJDstuSI+WhnSan40zyVlnKhNazuKot4gO2CezsW2kp8iwlqo8FLdqPBSxphLBq/5Z0CRmYn9tFf9o6ik40RgLWaEvGuqKJXZlmvTw6fHcuBitnayj9P96ijYnV0jDJelokFXC9uSF/O9yzjlmeLutJWg62qTteJE5iKXe7gYaq7Eh90b0ZlLBnSe+KUyH+p1XbKDijNrE8E3cipP4bDCmeFc1eeQUBkmeyBep+uE2ZHFcD23WNiFa5afqiiVKzI7NbRiDd/7jFNPt1IWHhYm1DJBDYwfeXJV6fkKb+W7+MCXW2Z0Gg7zokrMmJwaxVkX9cGwlU3/xdAnYooo15dzyCbT3zUplSiGkSxWdnK7fzswE8pa9DJtSF1wPH+vmBbC9zDjzHx74gOIK1fJ5haTbdR/PLWq9G/4wEciRkuTA61INqVVmRXFMm0BrIufxzdgXwto/IfBT5qJYpvU0C0/Aoy27W5bHcViZadzw4e2xkNmvexWk0gw046/xfcw4xI5Zp56HBQ35cgV6VHl6QnkLk9aGaIYqoYiK6nfsK9Jgib6r8YVit7QLWtvQ3vVNLeRt5AsP/heGTvr1IQJGTdsGtp9ILdOuLCzWNmHq5aFQ1h5k2TqoO3snLoU+EH1uagG5vuYcQ1RfAoWRUwBbUeDufPE5Z5znuijpK3ST/CB7+hvorgZRZFGVrWYsbkhn76A7K3i7ZnHVpnb239VlEabOfAWdkK7s2tFYQcLlX2gYqWfYkplK0orWorF8QDfw4wrQj2KbZ3NcimHzOLHe8bMU2/V/UjuQBPG7WuiYUVShdmhxnpDB8RXqGFh2CSxCuIb8ewRSz8oR4OqKAA6utrNiiFtU9+1LoaFyk6cv0gNIw+nyxbR0ABleonhs3LGZRv3A56FI7m7zBkMpyNPuvd4N9/Qi3B1uNWapeg+saWi0EN2HEK3AYoas8VUG74Rfy2Dpn617Lokcwfc4nPdkl4Fd69nMbQnD22JB3VpE0jMtxcDu8mUlccWMq7O1yfeh6SqCHOWUUeQm9x5dfgy0mDN5HHdigj4LrzIrCieto4KxjeSGSHvePz0iICcbVDbVil7Xng6qLXidt4mtXOLRYRwvdfJ7HyUavNFCTsnVMYdqtp9I6eJQkgzk2ymu2chjZf6D6aq0m5rJ5HLl4bBqOM5UNysA2O3fIKn1RAllHXx84XTs6cUI9DfcywK4YqY76CgIcPcNoWYCFSv64Rp6gJhPMsiZT+o3/aDI1lQ2y69aqczFxqlx8mUcZuCPv/hwlzYjI8inSf+DTnPnQpprlV4K1efHtxtq3OXJ/ekwMmSRtlpHmcKY3JVJHiHTxa2Rm7tYRj0AniFT4Ko0hCzZ4Wnzly7IaayWZxfscmvY1osYqukCw2o6GlX6goeZs+45RGOuihADFiRMRY+idzqLtNoLsQHnhrwS+2RWP60OQ7Wp1bKmqae9erRXgWBOdtF0Y27CSNNm5+vGQ9BOTvEjMvegrboqJL0nzuTYDDbONm/qhRfQFYmVUhPYuo2QGTpcZh67E1OoIzbnifS7p2ZKTbfuEfVqZfqLnzgT9ozuVy7IgK+CSuEvMb2XoWAim5oD5umfXjhitHVexfJ5WAeCuGR3J1Q1JQDlkRNWyfMiihi1woH8uy+VNmqUro/aYLQKG4fYty6FeNHc0V+icjfXVwM1RehIM7sbVapLaDzr+GYZI4VNYim8t6CztXI8y+i5JgQRtd0p/hcVCDSsHOab2lJaMqa4Pn9qXDZUj4vdBRXLw8XW9Vy54Z70leLFT8nTcbdj3fURYHmGvaXIte58tnh7xXeympHJZrBPmq4cWUkfHEyT8yCNHb3Loy0PdWibxJTQLalLIFpx98U5zbOZi9FPw+tZqceewPWxM2FzJoE8XOba6P4dVV8yq3ip5gS+C2uCulzYmFynOHvDE2BZD8tTV3Kqk2EScEvc8JkPII5ylFQ0pQnl7povM1Lrtmb6KW5FB/4/c6SeO7bGAt7smugolUPFiwYf51409kKcRVq0bf3/cmPYcqx10XF5mcOqFCl4QJUck8/B41aCys5Ym4EkmRQBeOB3Fr4x84kFiQn4G/bEyC9rk22VYhGs3GiZDypFYNmUdPLvUzEILe5Ys/ha0irMyWfSxZr4K3ATPDPr4caFIY+6KI4a6xoLobYciUczNwoVmU/qEbD5OCRNvVh/PLoq+L7LI/+VpQnU3EFbYn2Ncg6i7aPPzuWIz4HFiPHc+WycFgcXybZc0j3m3/2Vk6SjEdaRWmKg8ztdk1wsa1S9R34wAf3xcnCnltUv1kTLfq99uXUyjZA9xZtnS2QV58m2hmO5e0R5zzrExbAoshpMDPkXdHn2JebgCaPfB3yHvhEfCXm/NHXo9FGMWUnxfehwdvG7r7/rNRKEVrSKISQimYG8fao09yHz+1Pg7wmaX+4goZMYdLMCZLxRKhhv7q1zJxNlIu0YfiGXqDwVlIhjdaZExKdm92xJgrewRXjscIGs4PCewua+KLraheiVYUXkZrfs2qTILU6RpBSFS0Oi2lSzmlIRE//e4IMjikJVrWUQKOuVvSd9UcAz4zwci28GZAJf9gQK5q+WYichxv8ImFjaqXk9j3dS1uSFvH8XcajJ2qFFh6SWyVSsp7rIhNpVH8xTaRxmUHK1Kbx+J4UccbYoOuyqCq1r0HFOlTJehpLil/6GvRz09boodw60Vx/08pI7il0xiZ8H5UYIkH3mlQhDQ2kn3H8HU6MjIf3Jr6Hz0itXLrLRh519qrSq/GBX+bKyeqONdEwU1MIEbi6KmnuENV/1pdH6wX9fKX4cyZUt8C3YUVw78ZYFh0XaLM4mFsn3RPaWg5Lo2ZyQmQYhHZKZGYu04pitfM263tpBuHD/gxS5S4FD0/vS4W5kcUQWFAvXMub9QanEEG9wSh+nqOFDfBTdIk4i6Iky2LjGrzqnwE6iWH0tGtAI6y4zYJhTjEpeCQUN+XKpcIM5HFnrSq9HNnujgnsttVRYotrbEgu+CVVwNGiBiho0kG3nZaOBmM3lLd0gLqsCdakVMLk0Hx4An8eWs2ez1uiLgUNoqezXbnV4cKwLzgRMswZbRhUrKg36ORWid7IVc44leafzl5IY41CHLLnIX/Av+9IhBEH02AOriC3ZVSLJFeGojVQkaThAZWterFluze7VmyDjjyUDv/clSR6KcnuapAPC4urQtdSaqeBzphDCw5xIQ3DnAMNH0mo0MilTJpP+YiztVkMUngrNZ7oUDBkSZjYrqSqQVpJkrM8Fei87p8JE0/miWkwZGJsjgn45+jP0xYtTY6hr0Nf7xr8utQzyALoHgxZHAb7c2slJybRAIhvTnzACZBhekzlOrVKbO+SHGBBZw8/IZc5kSAKN4t2TnoMY+bs8HCG2EWQiqN5uzn5MYwM04+/BfEVKuiW3oKjhsV7nWV1OBRXhydsYfzLMO40lYbsnaS8Opv1TfDdyY848TGMGbYlL4YWeSPhr52lmOZjpIaTHsPIQ0VQ2Q3SdmTq4kAx6Z+THsPI8+2JDyC3Pk306sqcJV7haK/De/BhP+KMI9oYxlkgKzLym5Qa+EADvJdEzXA6NxWGccaK073pa6Cjq11ues1HjhPDRaHnK7yV4/CBb+GkxzDy/H59DKhKpaf301Saacff4oTHMBYO/q5vr5acoImEIEMctTq8Fx/2ME54DGO+VeetgExJMaSzwzXxP3KiY5g+QG5DMlGOPOuIQhpcHareQfSc9BjGfCP+oTzpMW1p1bEwM+Q9TnIM08e+xNbOZskhXshy5AJ7F9JcgxznhMcw5vmfLfGSTip0DnI4a7NNvTQZxh2h4RXRZSflVolhyP32XiG+jA97Byc8hjHPD5HFkk9tVUspLNBM4ATHMH1t1D88DFbFzpFzDGpEPrHnEG9EGcLJjmF6n2SUVtcm6Z+ZWBkOY3hMG8P0C5rqVNiYLVdcsx653l4zS5/gqTQM0zvP7EuV3S5dFv01JzaG6SfjA5+HQ1mb5EzU05GH7bE6vFzhrdzDfYcM03t16dqUSsneQ3K1+OLIS5zYGGYALI6cLteCQXupn9i+uMZL/Sw+7CXumsSuWhYunCz+/XMSPPZz8i/879Z4MXCbEz1jKXeujYbEmhbJ88OQ/H2c0BjGCvNNzbhg7EeG2k4MfUOH4IPu526tFhcv1giXCXKloPJ4TVmTOPdJP4O4qhY4UdIo3vjfDcoUPoSDfNiHkJHnzYBMqGjVSz6pP7HnIcNYYXLNcNiXsRZ00pNr6pHf2bLV4t9IqrskLLJVejMwE2Iqm4X/oK7LCL1ZGdL2V117pxBMElBeNTJyLI4vA4PEZH5y/yYXcE5oDDNwyFC7vLlQLmW/Z6MxbaqLFd7K7/BB73R5T7olGvjv7mQ4XtQg6TzQl6hq08MUVT4M9YvgFSPzC/dsiIWQ4kbJe4Z6D8cEPMPJjGGswISgFyGlOlpu4HegrVaHv0dcvtWCjHy/VOZDQZMOrBXtuLL8OatGNGCfv4hFkVGJLfh8iXus06AH38hpoo+KkxnDWIeA7G2gN0j6jNYgl1u7svR8hZfqTXzQm119hNaiuDJo1HWBtYO2UoMLG+B/tyawu72HQy9FX4TmQYfBKLFdmgOzQj/hJMYwVmRp1Exo0UsOz6eHcLi1V4dXIdtcOUld5KuBb8IKB7xFai7ovCi0pEk4G7AweC43+EXChrQqyXtEWegPk/n8kGGsysQjI6CypViuSd/bymPalPe6usXT2JBccd5n6zCiKPrn18GQxRoWBw/lj5viRFVyjxcmYxfsSFkGo/yf4iTGMFYmsjRELi1HW9vmyc9VkxNtXz63PxVyZJzKbRG0VeYVWwoX+vJ5oieOaqPzQ6l9iPLmIvAO/5KTF8PYAL+Y7+VSMpWg/tlK26Xq6xTeyjJXTVA3rYyEbRnVYO/IaWwXlawsEp4Fbc1PVRVI3hMpVVEwI+QdTl4MYwOmHHtdjESUCPJe+8haq8NPXbXVgkZnjTiYJtscbcugIpv1qZVw7YoIFgoP4spl4bAvp1ZiK90AJwsOcrsFw9jKEsp/OGTXJct5JC61xmSay/EhP4p0u2Jyug7FaEu6/VeHv0yXrWuD//zMq0RPYijec7mNPd9SW/XN4vyQExfD2GpqzVMQmLNdLh0HIdcNdG7pP/EhL3Td5ugYqG3vdJggUkUr9Txe6MsFNp7Cg1viJYd517ZVwOLIGZy4GMaGHokrY2fJpeNY5H8HsjocpPBSzndVmycqbhh1PAccHQdy63i8mwcx/kSe5H1Q0JApzjg4cTGM7Zit/Ax0XW1Sj2AR8vJAWi3uwAf8mMtW+/moYEdGtcMFMaOuDf60KY7FwkNYkVgucX5ohNhyJScshrExM0PehcLGLKlU3IqMH0B1qfJVfMBdtrqU2i2SZax37BlNHV3wyPZEFgsPIb6qWXJc24GM9ZywGMbGTA5+BcJLguXSsQ8ypD+j2i7Dh5u2S7tcVxDVoO3oAmeIf+9KYrHwAC721UieWdMWjl/MLE5YDGNjxgU+BwcyN5jzR7yjP6Pa7kfUrpycSBCdJd4JyhQtICwa7s19G+OgWW/ocf3bOltgnnocJyyGsUNhzbr4+WIqlESEIQ/0tRH/PIW38kVXLaZxRkF870gWDGYXDLfnk6PZwlPz3GjU1cIof3a3YBh74BMxBWrbKqVSMQ07/U9fBfFKfLhXu3pyIkFs7TTwliljN36ILJYcHp9eE8eJimHsxPehn0BWbaJcg/6Ivm6X3oYUu74gqiClttXhYkhbaI/u4KIaT2BjWqVwPDk3QgsOcaJiGDsx7fhbEF8hu0M4GrmgLyvE591iyDIK4u6sGocLIonyH7ntwiMIKW6UHOq9L2MtJyqGsaMVlLo4UC4leyNX9GWFuNZdXAfGyTRJ2zN+zq6BW1ZxY77beyCujISEauk2n5WxszlRMYy9Cmv8n4IjubvkUvJ2y0e4LQy9QOGtrHGfqr9YaNA5rvWCRnhNUxfAxeyN6AEVprFidq1UzFJ+yomKYewItV50GSXHdlKT4o0W9h8q/+mqzhZyw703p1c5TBCTalrhHzu5oMYTeGpvKhRpdRIvRZ0wKXgkJymGsSObEr2hWd8o6bmA/MbS6TRL8OE2ukuSot6/Vw6nQ01bp0NWh2uSK4QdEAuG+/PyoXQoa+nocR/UtFXAF0de4iTFMHY2C65rk1wM0T+8y1Krpyh3S1S3ro4SBsFS1X+2jPwmnXBOZ7HwDD4/ngN1up4vXiXaPJgYNIKTFMPYEa+wyVDeXCiXnu+z1OqpyN0S1SBhEpwO+Y06u4khNWfPjijis0MPYooyX3JUYHJVJIwPeoGTFMPYke9Ofgj5DRn9FMRTVk/zXH06jRznL1LDDHWBXQpsaCEaWFAPV/FWqUdB95fU2LaIkqNiviInKYaxr+tFbn2q7DRN84K4SHUjPtRB7j54eX50CXQYjDYTQyOqYWxls6g4ZJHwLNamSI6KAlVRAIxlQWQYu0LeozLTaije76338P+QJHdPWlTgQn51Wr31V4p0RqkqbRJTaWhKDosECyLFoayNMCbgGU5SDGNnEivD5NL1p71Vl76PD3WtJyQuasX4PrwISpo7rCaGbZ0G2JVVA3/dliC2Z1kgWBBPx660FfB5wNOcoBjGeQTxR3PnhxfjAz0XMXhC4jrPtFJ84UCaWNF1GQdWfVrd1glTVQVwy6pIMS6OxcHzuN4vAvbn1rEgMoxrCOIKc9Wld+FDHehpSYx6FIfianFsSC4k17SAVm8QTgXdFmyNkosG9ZwtjS+D366Nhgt9eVXoyVBrT0B+PQsiw7i+IKqo3aLAkxPaJYs1YsW4LKFcrBppwkxBk+4s0uraILJCK3oaRx/Phd+ti2HTX4YFkWGclJiyk9At3X++Qm526WCFt/IddxrXNlCuWR4unM+f3psKz+z7lb9sTYCbVkbyZ8T0SRDXxc+D0f5PcYJiGDtzNO9n6DTq+yCIXqrLES9OagxjG0H0Cp/MyYlhHEBgznbQGzr6JIg3Iic5qTEMCyLDeLYgeivvQbSc1BjGNoK4Ou4H4c/GCYphnH+F+A4nNIbhohqGcTeO5++T80SUFcQ1nNAYZuDDHvbm1LIgMoxLt114K5M4oTHMwHtaN6TypBqGcV1B9A0dgg9zGyc0huHRbQzjQYI4XmK7VPNXfJCNnMwYxnaCuDttJQsiwziXIL4vdX74JT7I3ZzMGMZ2ghhaeBjGBj7LCYph7Mgo/2EoiOF9EsRNLIgMYx2WJ5aLObfnRnhxMBsEM4ydmRQ8EtJr4iwURN/Qy/AhjuFExjDW4duwQjH0/dyILjuJgvg8JymGsSMzQ96F3PpUOUH8zznVpeo/evpAb4axJlOU+aDt6Gk8nVefDhOCXuQkxTB25Ef1WChuypUTxPvO3S4diQ9xFSeynl6JF/lq4PKlYfC6fwYsSyiD48UNkNPYDmUtekGxtgPCy7Xgl1gO7wZlwu2ro4RbxiB2vvBoXj6ULizBzo0ybQFMDBrBSYph7MiiiClQ2VIiJYbUMHz3uYL4Iz7E7ZzIfhVCcrn4164kWIIiWNmqt9gguMNghJ+za+DFg2lw86pIGLyIhdETeWpvChRpdZL3yOTgkZykGMaOrImbCw06yWEZKcgd5zbkb+aWi1/5x85EWJFUDrXtndDfaNB1wc9ZNfDs/lSxYuTP1bN4YFMcZNS1Sd4bX594j5MUw9iRbcmLoVXfLPU4nkBuPrP/8Bp8gAM4iamE0/0bARkQX90C1orshjaYqioQ47z4M/Yc7lwbDSm1rZL3xKLIqZykGMaOHMjcIDfHdDcy9FdB9FHfjw9whKcnsEuXhMG4E7lQ0KQDa0c9rhaXJpSzKHoQFy/WQFSF5BspbEhYwEmKYezqdLFDLj0vQ6488/zw3/gAp3p68pp4Mg+q2zqhG2wTVIK/LLEcrveLZMHwEDRlTZL3wqHMTZykGMZOTA5+BSJKj8ml5u+RIWcK4gf48NZ6atKiKtLPjuVA3QDOCy2NTmM3eMeVwtXLw1kwPABfvNZdxp6vWPEVak5UDGMnZoS8A0nSU2qMyNvIoDMEUTnRk4d6/2VrAmTWt4G9grZP3wnMhPO5+tTtmXAiT1QdnxslTXmcqBjGTsxTj5PrQWxAnv5VDBeGXoIPrpcnJ62dmTVg74ivaoHb10SxaLg5/92dIjmtpkWvhanH3uBkxTB2YHn0t/gcNsu1XDx8RruF6gZki6cmrEd3JIKuy2h3QaRttK81hSwabs4NfpGg1fcURF1XGyyN+pqTFcPYfKj3U7Ap0Qu6uyXzfBBy15nnh/figxviiclqkI8K9uXWgqOiuLlDTMBh4XDve0xqO15v6IDtKUs5YTGMjRkf9DwEZG+TS8MbkevPFMR/4IOb7YnJ6pHtiVDS3OEwQaSttA+Cs1k43JyDEi9dhm4DqIsCOGExjI2ho4mUqiipFExbNzPOHdn2OD605Z6YqGZqCqFF4nzHXmEwdsOW9CoWDTeHtsalgibvsw0Uw9iWr0+8D+XNhXIzTD88Z2Sb6kVE52lJikap7cislvSrs2dQ4zY367s3r/pnSF77Em0efHvyQ05aDGNDZod+Cu2dkhOjqOz0mTM9EAfhA/u2JyapW1ZFQUhxIzg6surbRWEPC4f7cvf6GMnCrfr2algR8z0nLYaxVUHN4WGwIeEnufQbhtx75gzTSxTe6pmemKT+ui3BqvNK+xuFTTp4Zl8qC4cbc+3yCIipbJYsrDmUtZkTF8PYiNH+wyG85Khc+qUZpuefIYjqy1EQ53tiknrs52RIr2tzuCBWtOrhrcBMFg43ZsiSMPCJK5O8/jHloTAp+GVOXgxjA8YGPAt1bVVSjx69oU49t6BmKLKbBdFxUdPWCR9zpalbM9hHDW8GZEqeVxc0Zgonb05eDGOb80OZoDfUJ88VxJuQ456YpP5vZ5KsNY89gwxkyS+RhcO9eXh7ApRKtPjQxBoyLuXkxTDWZ0/aarnUm4lcd64g3oEke2KC+sOGWAgr1zpcEPObdPDknhQWDTfnd+ti4GhRQ4/rT9MzDmZuhLGBz3ICYxgrk1QZIZV2aatmv6JHeCvvQio9MUFdtiQMDuXVOVwQk2ta4d6NsSwabs6Vy8Jhkdw5YlkozzVlGKtbPo2EmtZyOYeLLyQEUXWfJyepHyKLoc0Bc0x/uSrd3bA3u5YFw0P4MDhbchBEVWspzFWN4STGMFZkddxcuYHe5PP3GylBfNCTE9RLh9KFIbCjgnrTvlLms1h4CP/YmQRJNdLn1psTvUWJOCcyhrFGu8VTEJK/D7qMkvk9SyEZ3urnPDlB3bwqChIc2ItY3aaHB7fEs1h4CDeujIT9MsPkI0uOwfjA5zmZMYwVmH78bTEaUSYWSguil/p9T09SX+IKzVGxMbWSTYI9yvlCDbMjiqBNYtuUeqUmBY/kZMYwVsAv5nu5/kPo2W7xqyB+4OlJiuyXqnClZu+gpPjnzbw69DzD4GTIa9JJVJt2w7r4+ZzMGGaAfB7wNBzJ3QXGboOcIfAdcoK4kJOUCl4+lA7Nevu5XugNRpgTWQwX+2pYJDwMuubHixpAaqR8SnW0MDPlpMYw/ef7kx9DZm2CXPqlwaaXywiiagUnKRVctSwcliaUSw5gtkVlaWB+Pfx2bTQLhIcyKTRf8l5r62yBmSHvclJjmP4O88YXytVxP0CLvkkq/VLj+QhkkExRjWodJygVnOejgvs2xsKe7BqbiiKJYVxVsxgbR07q/Nl7JvdvjIOmjq6eteBGPexJX82JjWH6ycSgEXA0b49cCj5xtrtFzxXiCU5QpwseTokiVQHqDdb3SKSvmFrbCsP3psJFvFXq0VAhlbK0SeIe6YaMmngYH/QCJzeG6QffnvhQzgyY3kDnIpeYE8QYTlBnrxRpK/MAiqK1JZHaO/61Kwku4KpSBhl1LFfyPmlor4WVsbM5uTFMP7ZLyftQppimBHlFYTZYEGWFkc55ylo6BrSF2mXsFo3/dD45ZDGvCpkzPBJXRAgvzJ7b6gbQFAfBBF4lMkyfGB/0PBQ0Zslt0B3sOcybBdFiaCX3yI5EWBxfJlwx+jLijWx+8hp1sCOzGl44kCb88PgzZc7ySMQXpCUJ0rNNi5tyYYFmAic5hukDXuGT5VIyzW+boeg1WBB7L5PHxPUPFEZq4N+RWQNJNS1Q1ao/65yRimXqdZ1COGlgODVfk6XTNcsj+DNkZHchyOWE7puebTkdsDd9DTtgMEwfoJ0VmUhH7mNBtDI3rYoUvnbD96bAq4czhOkr8YZ/BjyHAvgoCiedQXIFKWMJdK8EFdRLm7XVJsA3Jz7gRMcwFhoB17ZVyjlbkCni+SyIDOPk1aZjQnKhVWKUW6dBD6tiZ4shxZzwGMY8x+UHedM/fEBhUXirujkxMYzjoFafE8WNklXNOXUpwtONEx7DyPOjegyUamVnUh9FzrNUEDkpMYyDi7fmyAz8pvCNnMZJj2FkGBvwLBzK2gi6rnapx6cDeVNhcXBCYhiH8/cdiZBV3yYpiEmVETAm4GlOfgwjwQ/K0ZBXnya3OgxFbmBBZBgXgiYXLU8sh05jz43T9s5W8I2YysmPYc5dHQY+C7vTV4HeoJMSQ3Lifh+5gAWRYVxtvummOKjXdUnYQhkhrlwltoY4CTLMr3xz4n0oaMyUWx0GI3cr+hSciBjGOfoSEZ+4Usknmyb3b0teAqP8h3EiZBhktP9w2JuxRsz/lVkdjrW8mIYFkWGcjrvWx4hRf5KdxTWxbA3FMCa+PvEe1LSVy41pUyF/VPQ5OAkxjFOZBy+MkV4lklfirjQ/nl7DeDyfBzwNIfn75bZKyfNwpmWN+CyIDOPU26aPbE+E3EbJEnLIqU+B705+xEmR8Wi8wydDQ3uN3OowHLld0a/gJMQwTsWlS8Lgu7AiyYpTmsRxMHMDrxIZj2VC0IsQVRoCBmmLJzpv+EjR7/BSNnASYhjn4n+2xIOmrElyldje1Qrz1OM4OTIeWEjzFGxLXgzN+ka57VKa7j14AILIs0wZxhmn10xVFUBTR5dss/74wOc5STKeY/57eBjMUY6C7LokOTGsQx5XDChYEBnGKbl9TRQE5NcLb02prdONCQs5UTIew8QjI+BIzk7oNOrlBHEZcjkLootUD969PgZuWx3FnwdjMWQpJrVKpN6rosZs+EH1OSdLxv1Xh/7DYHHkdKhvr5YTQ5rd9n/IIBZEJ3UwmBSaBzsyq0Fd1gQxlc2QVtcGybWtEFmhFSbCP0YVw9P7UuGSxRr+zBhZc+oNqZIeb7hK7BKGqF8ceYmTJuPW0PGAma1SKsmejlysGHB4qY5y4rGOr93NqyLho6PZEF6uhRa9AfSGbjB2S05RACogpCrC9i4jFDd3wIKYEnhwc7wQx/P482TO4DdroqGiVS8zwUYLW5IWiakdnDgZd51IE5C9FbqlcymVmh7of5tFT0FcwUlnYFyzPBxe988QK78uYzf0N8paOmAurhrv2RDLnytz1svWR8HZ0KyXtocqbsqBBZoJPNaNccuqUrI/o6EUMpE38EIaFkSrcefaaPCOLYW69k6wVhwpbID/7k4WiZA/Y4a4cWUkbEmvkiywoQgvCYYvg1/hJMq4FbOVn0FmbSIYu42SpwbIfORCFkQnOSfckVkDui4jWDNokZlY3QIjD6WzKDKnJtj4qOCJ3SmQIeOZqOtqg50pyzmJMm7D5OCRcKLgAOgNHXKpMha5SWHV8FbN4oTTj5XhuhjYiWLYYbCuGP6yMY4rgbTaVnjhQBoM9mFRZFQwZEkYTFMXQINOujeRRlnN5apTxg0gQ+xNiV6g7WiQS5FkgDhcYfXwVn/IyaZvUOvElvTqAZ0XWhK0O5aJK4L/25koVgj82TNXLA2DXVk1kvcetWLk1KXA9ONvY1Lh80TGdRvwf9JMhNq2SrkdNKpHnIq/vcQWgvgGJ5q+vKVr4NvwQlzGG8FecbyoAW7l/kXmjHNr2lKXbsXohPCSozDl2BucXBmXZGbIe5BeHSt5f5MS5jfpNKElTfcqbBI+ykc5yVjOYz8nQ3mLHuwdtFXGnz9zmtf8M6BRZqwbmQnvSV8NE4Je4ATLuNw0GnVRoGwepD7uqaqCJfdujLvKNoLorbqPE4zlHM6vA0cEvhXB7bxKZM5wxFgUVyp6XaWitq0CVsR8x/2JjEt5HO5NXyOG10sOKm3vhIkn8+CaFeHTFb6h59tIEJV34QNWyUnGMgeClk6DQwSREt9Xyny+Dswvvom/WxcDu7NrZe+Z8uZC+ClsIidbxiXYkLAQ6qU9DsVW6bKEcrhqWTjd/5MUNgsv1W+QDE4yvSegRXFlspNn7BHU+H/50jC+HswvrRiP7kiEqIpmkLotqcimsDEbphx7nRMu49TN94sjZ4gXuG7olnT8DS1phOtWRNB9X4+LuHdtKYi38TzT3hmKFyOttg0cGUXaDnhqbypfD+YsaEpSkVYnXamM/0uqDIepXGTDOOXQ7qfElCWqjpaL1NrWM6d3laNejbSlIA5FdnNi6b2Ypljb4VBBpNFd07m4hpHwTqTtdLn+RL1BB6qiAJgR8g4nYcap+ObEB5BRE2+2duLFg2lnDijJQr160naC6K2+Br/Jek4s5hlzPEc24dgrqFl/eWI5Xw+mZ3/isnBYFF8me++0d7VBUM4OmHTkZU7EjFPw5dFXIaosRPaerW7rhC9C8+Gys4+J4lEQH7WhIGouQ1Gcy0nFPF9rCoWDhaPjQG4dDPWL4GvC9ODmVVHgn1cve+9QO8a+9DXCSocTMuNoMVQXB8qa/bZ2GsSM6KuXh597n4eiXt1rO0FcpLwAv8kYTijmmRdVLKyaHB2BBfVsMszI8ocNsaIAQa74i+ZCHshYL0ZjcWJmHAEVeWmKj0CnQS9bUboxrVK4CEnc4/4KL80tCpuGt+olpIsTijzrUisdWmHKgshYysPbEkRFskFmtCAV2lDjPjVBc4Jm7D2wOyB7G7R3tsoeCx0zP5lro8I39AIbC6LySfxG1ZxM5JkdUQRtnY7fMvXPrxdGxHxNGDkGL1LD0/tSIa6qWdYuivzl9mesEwmKEzVjD6YeexOO5u2W9Tak+bzBhQ3w+/Uxcve2HvFS2Dy8VTS+jXsRzTBFlQ9aJzhD3JZRDZcs1vA1YXo1FR55OF2YTssFOQnsz1jPhTaMHc4MXxGenQajfGFiRIUWHt6eCIPkjQy0Ci/VV7YXRC/VA/jNNJxI5HkrIFNUPTkydAYjzI8u4evBWAS9OL0VmGn27LuZCm0y1sJ4nnvKOKiAhiKhugWG70uFC33NvuxXoFa9YYcVovpW/Ga7OImYMwOOg5yGdocKYg0K8kfB2Xw9GIu50FcN7x/JMtsyRH2KVGgzNvBZTuCMVW2cph1/E8JEAU2HzHn2qYHd/9mdbIkZeoHCS/24HVaImqvwm63kBGIe/7w6cGRZTXJNq7n9dYaR5CJ86343KAuKtTowVxcWVhIsbKNG+bOXIjPwcWxkVp1YGWZ2mzQJcxptk1p4L6fg4u1OhV3CWzWdK03NQ6szW5sCm2vK35JexdeB6aePZxh8fDQbCpp0si911JIRWRoiEhmN1OLEzvQXmk1qbgINRSKK4b9/Tu7LfRyt8A29zD6C6KX6DL9hAycPeW7wi4RcB22btnUZ4ck9KXwdmAFZRn0YfEoU5YIMhlOqomBh2CRhx8PJnemrhdOKmO+hvLnIbD6LqWwWZ4aDfdSW3r9G5GeF3cJLNRy/YQ4njt6qTQscIoj7c2rF1hdfA2aghTb/3Z0Mpc0dZkWxuCkXVsbMEudAnOgZSxgX+DxsT1kCVS2lkq4Vp3e6ThQ3wr93JfdWQCPVcjHHfoLoo/6zWJJy0jALmfRGkt2OHcWQnNHJi5E/f8YaUFk7iWJuY7vssAlKaNQvtj1lKYwJeIYTPmO2eIamzwTn7oLWzmZZMaTjpuNFDXDvxti+rAxPo8NF28d2XCFqbsJvepQTRu/JhJwvshrawB6Da6j3cdyJPF4dMla+j9Xw8PYEMRWkw2A0U4HaAcpCf/j6xPsw2n84CwDTo3hmvmY8pNfEmW8Z6zLCrqwauKX/U7aaUaP+qLBreKs2mfZqOWn0su302bEcKG/R21QMm3BluCShDG5cyZNpGNvw0JZ42JlZY7ZXkUQxsTIcFkdN59YM5heod9UvZhZUtZaazWPUv706ueK0231/aVL4hl5pX0H0Ui3Ab9zOiaJ3yL15pqYQ6m1kCUXOGiuTKuA3a6L582Zsyp1ro8EnrszsStHYbYCy5kLYnb4KxgU+x4Lg4Uw7/hYcytoE9e3VZvMYTUoiD9frB+7Qk6Kwe3ipPsBvXMdJwjLImuTtwEyxkrNm6DEx/RRdAreu4iHejH241vSCV9VmftejVd8MysLDbDbswVukP4VNhIQKDbR3tZq9Vwq1OlHVPMCV4WnW218QvdUP4zcu5gTRN7fyv+9IhIhyrbAtGcixIrkTlDR3wDtBWXDZkjD+fBm7t2W8GZABeaLYBsxWoRY2ZontsnHsregxhTNUXLUvYw3UtVeJHQNzPdOxVc3ijNpqtQ8+6vH2F0Tf0Kvxm6dxcug7V+Jb0LgTuRBd2SxGrFkqjN2ms8K0ujZhiMlOFoyjeWR7IgTm14veV3PR0aUDZZE/zFZ+xgU37nxWiC89CzQTIKU6Cnp75aeK+A2pVVLGvgPDS/mowiHhpTzCSaH/3LQyUsyO3JFZDWG4aqQmaLpJzrThIRupYm2HaE7dk10LXynz4YHNcZbM8mMYu3DzqihYEF0iXu56i4KGDFgXPw++DH6FBcSdVoX+w2D68bdhb/qaU72FZsrqaUeB2nimqQusL4ZUYeqtutFBgqiag9+8m5PCwEdlPbApDp7bnypGvn2JojdVVSAYE5ILIw6mwV+2JVhrf51hbDAY/FQ1Nc2b7C2aOxpBhavFn8K+4L5FN4CuoV/sLFFdLGfme2Z/YWhJI7xwIE1su9vgXoxWeCuvcYwgeqtf4NYLhmFOu2VQ3+2B3FrRS2Y+MXZCSVMeHMjcKKoQWVhck1mhn4K6KBBq2yp7t6TDe2JJQjnc179me0tZpfBRX+oYQVykvIOHfDMMcxpKdHQUQLscla16s6dIdMbUYdCJ0W+r4ubA5/5P8/g3F9ke/eroa7AnfRWUNxeadag4vUWaWd8Gr/lniPoJG9+DYxReygsUDgtvZSYnAoZhFD18QWMhvFxrUasRJdWkynBYGvU1JttXRck+i4+TDeP2Hw5Tj70JGxIWQFFjdu9FgCiEdbpOWJdaCb9da4ceaS+VFsXwnwqHhrdqAz/8DMNIMXRFhGi2TqltFT2zvQXNt4wuOwGrYufApOCRLERO0U84HL4+8R5sTFwIKdXRFlXE01mhuqxJnCvbsfYhAUXxAccKopdqND/4DMOYG1/4r11JsDalEmrbOy1KqNqOBtAUB8Hy6G9hMgujQ6fM7EhZKmy+emuu/6XJvkkHC2NK4MHNdjcZ2KrwUt/kYEFUPoQ/SAc/+AzD9NZm9OrhDIitbLas77bbCLVtFRBbrgS/2O9FjxuLlH2YeGQEbE7yhpy6FGjRay3zYe00wP7cWnh2fypcvtQhw0JmKLw0Fzh6hXgrksAPPMMwvUH9s3Se9G14EZRT0Y0FUylo0kmLvgkKGjJhTfxcmBg0QhR2sHBZf9QarQj3Z6yD4qYcYellSZAtWD6uCj86mi3mNtuwgtQc1ahDrykcHl7qqxTe6pX8sDMM0xd+ty5GOBsUaXXizMmyaU3dosT/cNZm+FE9BiYHv8KVqQMslKGKUZouQ1vUloogBbmeZNS1wQx1gTOMj4xEQXzICQRRcyEK4nh+wBmG6U9D/+O7k2FrepVYZRj6YByq7aiHiJKjsCZuLsxRjmJnjT4wKfhlFMGJsCVpEcRVqEUxk+WGAt2QWN0CPnGlwozcSaZm7UEtuk7hFOGtegKp4QfceTnPRwV34Rs5DdH9Dyag0/xpcxwMHbjdCsMMCDpzevFgmlgxFuOK0djdF8eXDsitT4OjebthffwC+Pbkh9y2IbManBX6CWxN9oWw4iNQ1lwgBiT0JfIbdfBTTAk8uiMRLl7sNEbkesRb4Rs62DkE0Ut9H/5AofxgOxd0w/7v1gSYqSmA3dk1oCnTQmJNC2TUt/0CzUglJ3S/pHJ4JygTblvNNlKM417aqE3jyT0p4JdYjivAvlml0Vljk64e8hrSQFUUAKtiZ4stVU93npgZ8i6sT1ggPpOCxkxotbBI5qwZtLh6nxtVLCYROahgxvz5obfqI4XTxELlNWJkDj/UTlO4QG/bwYUNUNrcAS2dhl4dNciOippo8/ANcDoK6N3rY+A8/iwZBzAIhZF618hJYzkKY4Ouq89WadToT4U4ZdoCCC85CpsSvcRZGQmEO585ir+f/zD47uRHsCNlGaRVx0JdW6UQwd4mykg11tP57jRVgTAUoHNCJ80Jabgoe0DhVOGt/Ax/sCZ+oB3b7/W37QkQkF83YOPh0pYOmByaJ0rlKUHx58s4iltXR4nCDdrNIHE0dvfPSZQcGMibMSB7K/hGToNvT3wIU4+9AeODXnBJS6rPA56GSUdehunH34LvT34MGxMWQmjhIahsKen3c08vxtVtncKzlZx1LnV+r1Wjwku5T+F04a16TMH+iI6bCOIXITwWyValG6wT9HDsyKyBP2+J58+YcThXLQ+H0cdzYH9OLWQ3tEOHBZNvzBflNEJ6TRwE5eyATUnesCRqJsxTj4OvQ96DL1BonE38aIX7zYkPYL5mPCyL/kasAOkskCy1aCbsQIJ6CMmfdX1qJYw8lAFXu46zjk7hpZrifILoo7oBf7hAfnDtz7WYKH6ILIKa9k6wRYQUN8IfNsTyZ804/pwRuQbv96f2psB34UXgn1cHdVa4743dRrHFSg4cyVWRwsHhYOYG2Ja8BPxivgefiK9gRsg7YkU5NvBZmwnfF0deEt/n+9BPYGH4JFgb/yPsTlsJwbm7IKo0BFKrY8Q2cF/aI8y51Zc0d8C+nFM+q/TiO8T5V4TnokX+5nyCSBU+3sqlpooffnjtxEW+GpgXVWyVpGAu/PPr4f5NcfyZM07VsnHn2mgxGYUKPmhLtb3LaLV7nop0SHjoDK6ipRiy65IgszZB+P6RONHK0j97C+zPXA8bE71gddwPZ0EiSsL2o2qMcPM499+vjZ8nmuDpa5AAx5WrUPCixffJb0gXVaCNujpRRWvNaMXVYCA+z1NUBfDf3clwx5poRzXTWwFlLmrPxQqnDC/V26aKH35g7cQrhzPwzdYAtg7aPt2eWS0mUfDnzjjbqpEKPm5fHQX//jlJ9MdRMYgtg84jSaj0Bh10dLWLopVmfeNZkJiRmNa3V/f4dwStSHX439LXIPG19fObUN0CsyKKxUrwxpWRztQ2MRDWKJw2FobejD9gCj+k9uGv2xLEloe9gt6+6U38MtfbVmE8DFrx0PNBThsnSxqhEAWSqqj1BiO4c1C9ET2nVW2dop7gYF4tjAnJFStpN6waNwqTeqcOb+Um/EG7+aG0Ldcsj4DtGdUWj7yyVuQ0tMMTe5K58pRxKe5ZHwvvBWWJNo4jBQ0QV9UCZS0dfZqM46xBbVXkMBGLf6cDuXXiCOWFA2lwg1+k6O102+vqpSxCrnVyQVS/ij9sFz+EtuXtoEyoaNU75AFcgUnlKtepQmOYs3ocr14eDg9tiYc3/DNEYc6G1Cohksk1rcLM2NklklpPkvBnPZRXB4vjy2DiyTwYcTBNjFG7bKlH7d6sQYY4tyB6aa5B1dbyw2c76IHekFblsLdb6lN6cDMX2DDucf5I5+I0iOKR7QliZfXhkWxYEF0idmBUpU2Q39QuzuDsvvLTGyC3oV20maxOroQZmkL4IDgbntufKkYwkmvIEPc4B+wv7yp8VIMVTh/cfmFT/rEjERJrWh36ljoxNJ8n2TBue/5I48mot5dGGdIM4D9uihMi9BEKEt37i+LKYGVihajWJH9HIq+xd+Gk7c30utZf/puwsiYhvPS15kQWwydHc+CNgExx/nnfxljxvW/0ixStJjR4Y5DLVoNanWzhbuEbqnABQVS/e+rAky+cLbZ8Rh3PcXhxQFiZ1r3PJxhGZkVJ9/2gX1ALAT0NjU3sjcHn/DeDBKe+3nmm78Gfda+sU/iohypcIryUtyOlfNFsMK1jWbh4O3V0UCXbEK42ZRjG/rQhnzmPu0XvW6ZXI1v4wtlgruOqKNiTXesUh/v3buTpNQzD2J0E5FGFy4S3+nz8gd9DOvniWbl8fEMsRJZrnUIQXzqUzteEYRh7s1Pho7pG4VLhrforks4Xz7pQdWdWfZtTCCI1/PI1YRjGjjQqvFRfKHxDz3MtQfTS0Lbpci6usb4gZjuJII5lQWQYxr6kKnzUDylcMryVVG1ayxfRepDrRFRFs1MI4sjDGXxNGIaxF10KL+U2XB1e6KKCqPoTEsEX0nrQAOODuXVOIYj/wz6JDMPYj2aFt/o1hcvGwtCLcZW4QsGWUFaDGnSXJZY7XAx1XUYxMYevCcMw9kGZI47iXDq8VCPxL1PBF9NajflqUcziiFFSZwZt23JjPsMwdsNLtUjh8rFIeSn+ZcL5glqPJ/ekQHZDu0MFkcxFeaIGwzB2Qq/wUT6gcIvwVn3OPYnW44aVkbAjsxqMDhruXa/rEiajfC0YhrETx3CFeJl7CKKX5lauNrUu7x/Jgqo2x9g/rU6u4PNDhmHsV13qrfpY4aM+X+E24a3azBfWetAkfvJDs7cFVH6jDp7am8JT9xnG+5QzBtkw0THG58dzYJqq4BfGn8iF1/wz4MEt8XzePjBSFF7K+xVuFT6qp/nCWpdhKExkaGqv6DJ2g298GVzJ5sCMh0M7JM8fSIOA/HpIq2uFIq0O6nWdoNUbfoGMfMnEm877yVfxS2W+EE/+/PrMAoWP8nL3EkQv1fWIki+udStOp+BDRi0Qtg5aifrjw88PNOPJz9v1fhHw2bEcIXI6gxEs3aChP0aV4XTMsSKxXAzYuNCXd1ksoAh141nX8D3s2znihfiXG83FNdbl4sUaWI4PmK1FMaJcC3/aHMefOeORkI/h47uTIaigHvSGgR9T5KKgfhicDdeuiODPVx4a+7lb4aO+VeGW4a36M5LIF9p6UOsDuWpvTK0U1Z+2CE2ZFv6LyYA/b8YTGbJEA28EZECOlVud6Hn1ii2FezbE8OcsTa3CWzlK4bbho7oC/5ILEQNfbCuKoo8K/r+97wCTsrzaHsHeY4IlMZqLJKaZ5MqnMfHLn+SLMVY0qFhjixWpAiIKCoqAyOxSpYggKB0VCNtpOzPbe2V77733dv5zHkaj7Du7w+70ue9c97USYIF3nufc73mec+7zw4+iaVFEEdW099hsw8oRj9yR/GFXEp4z6KViGE6zDfnqjtAeaOvpox0ZVfTTrRBFDcYxx3uuIMrIDr3xLv5HZuHDtj0vXxehqtpSalpHvVFFWN+PKaEbeKOOddGKUglWMh9SjrKeDc6iyUdzaGl0sTpCFhpKm9RR71D8IruWNvCvXZtYRvPDCum5kGx6IiCTbuGXgOs3477U249Jn+S1IGJoz1ru9t5+2phcoe4n8dy/ZidzGWvGGJ1HY2Xo5fwP3aXDWCi7lYGLMM4zFai5iVLt1muFzZv8kg7emCKEW1IrlXH3uavCnOZGI8HoYhY88W69emOU+vu8zIKnjyuhkMIGym3sUBW2rfzva+/pV3eoXX39KqvtNdMaiLnBV79e7oakUEK+l7y5t/D3ru3oocTqVtqbVU0fxJbQ3V+m0Y+3xKrgJc/5gtVhKKn30AKa2z9PpQzeQ45obJJ1uzCiiM7jPYfnr1iqW2n4gc4r4KP8TcvxodvZ0WZDFP2L33DlfjGCsyHZ3NJHWNbaRZVt3VTQ1KnuReKqWskvv44WhBfSr7fHO03IRWR+uS2O/rQniTO+bNrAb83y927odFxribXtJyUtXaoPVDJSKb+/eUcCjd8So0QclnbuTzkdCOYXL0dCXkj/355kPP9TvqXrdF4DfdiVyorHxziAD98xvGZTFP3v7iS664s0etQvg54KzKJ7OduR40bJeCTTcfTfScrOv2pqnnkij7aycEexAEpW5k4QgZSMNaiwXh0zi4uQPGtUELprdmik6cfzbFJNeqYQEZarAC//DNp1etOvdV4FvfE5/od3YQN6Z+b6uH8GrU4oYxFpUD1dzgg+9kJjV686Zt2TVUNvhhXQ3/al0IWrcRTmLpQs315FNNasnX8eSvf2z+AL5gXeJYg+pst0PoZCbEDv4EUcZMRZZ11SGUVWNCsHD2ePsLI3pGlb7iHzOHs8XtxIrxny6Vfb4rAeXJwTD5102pqRO+0vc2q9+S6xmXmHztd0ls7r4GucjuIaDy3uMRfFyJGoFAvIkWJrT5/VxS6WRaafv0cvdfV2UEdPG7V1N1NzVyNVtZZSSlWUYmjhf+g/mdu/xe1JelobPZ/WxSwY9HOHsz6l2PJQ9XsLGjKpobOWhayJ2ntaqLO3nbPXLurr7zX7jYzw782Uoh/pPTta1KCqgb+/KUoZK2C9uFZf76HcOqe+SKXXtXtrq5NcoW1jMbxS55XwMchdYgo2oudQ3mx/vCWGHvfPpM9OVlFz9+gKYkT4RKAqWooorz6dEipMdCT/C9qasJxWRc2jRaHP07SACfTS4X/YlLODJ9FS01TaELuI9qdvpBMFhyi9Oo6KmnKouq1MifApkRw5Slu66L2oYrppRwJ9b32kurvCGnLyXfvGKKcdl34FKSKbdjzXOxvx9YYndKtCx3qnIPqaxM5tKu4S3Z9SlCPWbnON+RTCGVD7CK3kevt7VLaXVZtEkSVH6EDGVvoo/j1aZppGM4Mm2lz4zpTzjz1FvhGvccbpQ0G5eyi+3EjFTbnUxtnkSI/I8ps6aUNyOU06fFJljahSdR4nHEinGicXdYlv8Mr4Upft/7WjTdsBnd54vc6r4WO8kRmDzeielF7FP+xKVBZUYWVN6ljwjLPAvk4qbc4nY5Ef7UpdS6siX6dFJ56nGYH3O10Ah+OckIdpedgM2hy/lA5lbqPEijBq5Ix2JEFQ2mEO5tap7ODaTdFYX07gtGO5qnfX2diRUa16cL3o2VdxdviC92aH/xXEi/hBLNadGgKJTelGFJeYNYlllFnffsbm4v0D/VTZWkwheZ+ru713Ql+k2cEP0WS/O11eBC1xqv+9NO/oE+qodVvSCpU9yh3nSDwuQ0sa6cnATOWjibXmOC6OLBrx6YYtIQ5KclrgNXeHesMxnY/hap3XQ8Z66E038UOJRF+iO2SEJnXPIg3pEritrRSVYhjJBGvayymsOJBWhM+iV4MeoKkB99LLh+9wWxG0xMl+d9F0znDfPPYkbUl4n1KqolWRjhwJW1uhKm45R4sblDuOzKDEUar9uTSqWDXIQxAdykad3viUsvYEvi6wmWsuucXGdFFfR/E1nRWapzLCfisHwYkASBFKYkU4fRy/lGYFP+hx4mct3zW8SP7ZOymv/iQ1ddWrLNlaHM6voz/vSfa2YzQIole40hhCWQwvgAh+u8BmPD+caGSJrkeZDv5UYCYdKWqwOlhIdWhufTodyf9cZYNT/O/xWiE8na8feYy2Ji6niJJg9bJgbdtGeWs3rUooo1t2JsLz0k6cZyxQ7UHOxr6sGmVg4QXPvIezw4kQQO37xNdQceo6PIezwj/tTqLNqZVq0rd1JsXdlFoVQ3vT1tNiw8v0iv/dEEELlCPjNdHz6UThIarvqLbq+Xb3D1BsZQu9ypm6mItjndqWYmnoCt65H6VUeEePqt5o0PkaLoX4aWeJ39X5GPKxMV1jlNSME3mUXNNq9T1hfv1J1SIhrQnICK2j3J/OCnqQPgibSX7ZO8zCOPzzruvsUebiv+dsEevVdvzjriTlouRMyCnMW+GF3uJKcy+L4hiIn0WPU9OjOgwQdupdoTSKBxTUU3tP35CheYD/19PXrdxdPk5YqloQ3LlK1Lm8Q1Wpvnn0SQrK2UMtXY3UP9A3bA9jcXOXmlJy1cYoNbIIa3j06z+ussWpgiif6QOHTnpD3+En3utKY73p9+XMo9icjue49ZH0Qki2VdMmevq6KL8hgz5N9lXVlBA0G2aN/FKxxDiFIkpCqKGjZlhhlAxe7OBkagjuFkfPBWGFzvO/ZZ4oaVR70cOfc47Ox3AbBG/40VBn63xMj/ADq8bmdJzdmhy9rU8qV6X+w/cPllBI3j51NAoBsx/lRWND7DsUXXaMs/XWYYOpmIi/cjRHtWhgXY+cMhO03UmFNXJcKt6/Hv6MpU5kJcd63B1aafp9Fb89bMHRqWOmUMgQYRnE2z2My4zYk0UUB9PqqDdV/yBEy3FuOJ8lr6TCxiyrfDBXxpepFhms7xEa0/ua6PPsWqcIogzsvm5zjKc/41TmHyB01jfrj9HpDXfzQ8vCBrXvxn87vFBNfx+ur7C8pUi1CrwW8ohHNtK7fqP/ncoBx1QUwFlE+7BZhrTI3P55qrf5Ydps4oVMri92gsn37NB8T3++HcxlHOPPgdCdUZZouJizRF/zA8RGtSFlqoJMV5AJ9UPZVKmimf5uMhb60ZvHnqJX/O6CODm5IvXUMeoilS0ONW1DvFGlWvL5kGxMYB+hWb20trQ56OhU3kcNJU2q59fDm/BTOLaPg8CNrA1DjL/j0Kxv2/vCW3cnqSPSobopxGGmuClHZYVS/QhBci2K48+x/APK8Wa4bPGdyGLPD7R24Pc3Rat+QHs718g+TKttU9XdHm7P163TG5+EsI3O0m0OP8hObNDRUxp9/3konaIrWlQGYQniuRleHKRGLqGNwnUppgefJK0YNluUKtQPYktxrzgC/vyTODXBvrtvwG5imM5i+OB/TnpDhbA/x/NzIWqjqzqVIcImbM7R91fJWKFU3nxDobmrgfakfajuCiE67iGKMn4qoSKMg3bXkJni3qwa+t1nCbhXPEPKM9ueXmUHMRxQxhcPHT7pDa40pTq96W8cz2HgbQNLt3/o9AZkiaPgK8dyqKZ96P5CmUm4OX4JXGbcrm/xDtUCIw39w4ni8eJG1WJzli/2xJnwB5uiySeudETzPi1BCp/k+sILMsMezgzfZ14GMbNNG8ZF/FBXm90NsEHPgJesDacZJ3KH9CKVxu+06hhVxYjCGTfuWwy4T73QtHW3qIIoS8U2CVWt9Ktt8RgnNYK9dP/BdHX/LsI4MIJT1N7+U4Og54cV0pUbIr3lxSRSpzfejPFOtnWw+QUzGhvT+tLxqzdG0ZqEsiEr5aTh+2j+F149lsnTKlGXh8+k/IaTLH6WP/es+nb6zfZ42L2NUBifDMxS9oaFzZ3U2NVLfUNUqMnwbJlUElPZQoujiunaj6K96XnVcmb4AgTM1lgRej4L4uRTDxibcjiKGPrGlVJLd9+QjfaHMrepSfUQE8+yflseNpNSq6ItHqFKdiOZzv/uTsKd4iiK1G7bn6JmhIrL08HcOgoqbPia/vn1tCuzmt6PKVH3hOM2RHrbM+pmbtfpw9BmYae7xGuZe5i92JCWeSm/wUpm2DyEGFa3ldPnJz+iKRjP5LFceOJ5ii0LpV4LFahyfBfJoijHgF4xasjO/O76SPohZ39fUQb8evlzLWTeDOGyp4ONj/G2U8aw2ICWuDiqaMhjUhHDjxOW0bSA+yAcHs75x56mkNx9Q5b9Z9a3051fwtUGtPmsw1c5Zo+FcNm3DeMcfthzme1YdIOt2KSatM7itIoBqhExjF+KzNDLBhEfy//S4tQMuf1Kqm6lG7fFu+WaP3eVia74MIJu2ZWk7vbmGPMVxWnmEb8M+u1nCWq+p/w6VNc6TAwTdT6mSyBYjskUL9T5GIKw8L5tNSUDfWssiKFUHVa0FKvpCRAJ7xTFwJxd1NHbNqSxtBzzuUPB2MVrw5XRwNRjuaqVpH0YN5n6zh7yL6ijiYdO0o+3xKr9grhhNzEs5/j8Z1SVOvQ+0fQnjIj67+X+o/wmnFnfYTEgSGYIMfRuitlCUO4ei6OkpNBmT1Y1jf/YdactjF1poj/sSqR3I4vUUW/fGfY+yL1pfFUrzeSXx599EodjYtuzjQXxHZ0e2aGj2zDOUw9eNX16t1H3X/YmD+lAI3eGm+OXQhRAmhvyqLmBX3uSg2RaUjF5zUbXyxTPXRVGLx7JptjKFiVso0Frdx+FFDaogiKImM0o4/r8mDdAoBx/bCpVp+NP+eN57yK8fnMMRVY0D1tAgztD8Ov5isGTlCgONVNRpsZfutZ1DMFlOssHsSVDGkyMaP5gYwdNP57rDW4xjqAUO96HQhrnHZuO5Q/gXm+tOpUGYTEetvSyLH2Gu1PXwYoN1LxTTKqMsOhoI3fRTwRk0jkrTS4hhtJG1GqnUUzV7T3KOQb3iqM+Kn1X52s6D8Lk3EzxHJ2PYTZ/IA3etABlxt1yfmO25K3Y2t1E+9M3IjMELfKNo09QWnWsxepTsRj7464kpxtMbEiuUBM77Inm7l41LFteMiFuI5pz6M+x+AIIkmu42FzBH8pn3nKfKMc7zwRlccDSPj4Sd5KQvP00I/B+BH5wSEebD5TNWwYNWChOMZY20VVOuk+UdT7HkG+3zPB0FDR1qvFoZ69Eoc2ZN+Cbfg0hcq0im1/zB5Ps+UU0JlVEk1jdanFjizsJvElBayjzLtfHLqTK1hLN41P5f+Tu7qI1js+cZOxSaUsXORKhJU103eZoiJz1bGSKpSZaLFzvTtEwydPHRIkxsMy1s1RlV9CQSe+GvoRgD1rNqQH30s6U1RbbMeSO7YWQbIev9X3ZNeRoyL5aElUMobOahk3McarIEXAx+Bou5A/pA+aAJy4+KTt/NTRfzbWzNNx3bfQCdRSGQA+eCacFTKAjeV9Y7E+UEwk5mXDUWv+/fSlqioQzIFnpxWtwl2gFjTq98X90K9CA78JZovE65mFPNAC/44tUi44cMgPv02Rfmox5huAIKbMws+uSLd4nSkXzjxzQtC/N93syq8+46d5WkD936vE8CJ5lSsKRxWJ4DwTH9atOx3AKfxszyZMyRXHPl4ZkLfT0ddGJwkO4NwRHzWWmqcriT7uNp4/mGgvoQju3J/xka+yQRhOOgBQToTfRIps4vs5SFf6AW1SdXqDTG57nD67MExag9ILJTLVujRYLKYTIqUulRaEvIKCDNrhPnEA7U9ao43dLjey37Ey063p/1C9TDdR1JvKbOpUpOMRPk1s4xl4OoXGvpv3LzPeJHe6+AO/6MpVyGzss9Bs204exbyOYg7Zzsgl5mE4UHLI4XPiL7Fq7rvcl0cVqyrwzUdvRQ08HZkH8BjNVpzddD4Fxz/vE73BqH+buR6X7OQBZuk8Jyt2L5nvQtv2Jh++ghSeeo7yGk5prTswgnvDPtNua/yilggbIuWjp7qP5pgII4LcrSsuYd0BY3BkrQ3+k0xvy3HWk01xjvsVhv1l1yTQz6AEEcdAu3BS3mJq66jXXXmFzp5oWYY+2Ir/8enI2RPR94kohgv9lDcfRZ3UrQs+FqLh1w37YGE7x7+cPtMSdFqDMfLtpRwLFWSikkUC1PnaRaqxG8Abtcp/ofw8Zi/wsCsaGpHKbN+y7iiAKdmdWQwi/LqIxLtH5mL4DQfEIUTRdzB/obHeanyjZoRTSaHk49vb3KGu2V5EdgnbmW8efodr2Su0Tivp2+sfnqR4piHJFsSW1EmLoY+xi7tTpjT+CkHjWfeL3dD6Gte5SZHPr7iSqbNOutBPvySXGKQjYoEPuE/emrVcvYYPaffhlTe77rtwQabN1LyOn9mTWOF0Qpd8XjjXStmYI56+/gYB4InwNP9DpDUf4A+539cUoxzWaG7WnlT4/uVk1USNgg47gvKNPqFFRliZi2DJLPMvXSB8mlTutKf/rmZBdvTTtWK63T7Bo0elD/6p6uwGPbNqXHsXr+IMOd+WFKLZVMtF7sIXWAKXXxOGoFHQ4V0e9YbHAJrCgnq7dZDtD7BnHc9WQYmdC7Nv+vj/VmwWxQac3PcDxErrh+Zmi6S/8gRe44kK8eG24RdsqGfi7OmoeAjTolN5EU1EAr8tezQKbR/wyVCGYLfaAeKbmWei7dRTEu3WcDY+C3Yx1zFkcJy+EWHhFkY1xDPMZV6w8nXAgjYqbtRuikysjaYr/PQjQoNOyxKrWUs21GVbWZLOJ85eti6Dgwgbqd9KpqbyLbkyu8FYxbGauZF4FofCuIpuLzJWnda6yGK/4MJK2plVarCxdGTkXgRl0GqcH3keGIj+LBTa2vEucfDTHaW41MgLqf/ckeaMYdut8DPv563gIhFeKouEK5gpeAK2usCDv/jLN4lFRUkU4zQyciMAMOpUrwl+lhs5ai9MwbFdtGk45Dc45Ng3h7FT8g72wojRM52sYr1uFcU7eW2SzMvRCXgireUG0O3NBSgDQx5VqWlZJAFpmmoaADLpEG4b4nFoaJHzvgXSb7YlngrLV/aQjUcP/Bml58jIx7NfpDSd1K0J/gkG/gFSeXsUL4lOnudL4GulPe5I034ilstRY5E+zgychIIOu0ax/4lnq6u3QPDb9JK2SLrSRe80lQxSY2aX3sKePlkUXqz/Xu9orxLDb8HsIAfBNUbyGF4fJGQvy/NVhtDCiSLsfqqOGNsa+Sy/Dog10ISZUmDTXa3ptO/15T7LN7At/vT2eQksa7S6Kcl8p4jveAQOQXYyZOh/TQ0x4lALfasU4i3krL5Djjl6U49ZHUlJ1q/bdYWU4vX7kcQRh0KW4MvJ1FpH2Qeu1g4Xlncgimw3Xlbs8uVtPq223axFNQEE93cjiO8bXq8Qwm2PeE2ivACyJ4tlmUTQ6cmE+cOikZmWpzDrclboWBt6gy/G1kEcorTpWU2BCS5roVywutjxBuf3zVEquabP5WChJPI8UNdANW2PV1YUXiWE9cybHuwsQ+IHhMsXfmkXR7hZv8ka6P1vbu7GwMYsWHH8aARh0OcpL2tbE5ZotGE3dvTTp8EmbCox8r5+yaB3Oq1OzCkcthKpYrVdN7Lh8XYQ3Tq+QlrOxCPiAlS0ZxvuYKfZenD/eEkutGvMOJdAcyf8CwRd0WS468Txl1SZrCs6qhDK7CM13PoygOaH5lFDVqrlvrBVCU2kT/Ssg02ZHu27EWuZ8BHhgJKJ4DzPXngt0flih5nGp2LRhogXo0vMSA+6lgJxdmnZu2Q0d6hjSHnvm7JUm+s2n8fRWeKEaFWVpKsygKTFNnfR5di1NPZZLP+EX0bG+XtdrWKnEUExJAGAEgngW8yFmlr18S48XN2rei6RVx2CiBejyXBfzFtW0V2gWqjzmn2nXeznJ7sazsE04mEavhubRuqRyJXhBBfWUWtNGB3PraG9WDa3mbFVE8Pb9qWreopdaslUx32RiyC8wKlE81yyKObZepH/aIybGnZpvs58m+yDggm5RXCMTWLQggnS2gxxfzl1lUsep12yMoh+y6El2+oNNUXQ1/1iObs/2PueZb0+u8DG+xbwMAR2whSiOYU5gptmq0EaKaRZHFqlm4EHHpd0tNCv4IQRc0C0ox6bdfV2aU+dtORYKHBEbmXOYZyOQA7YWxgm2KrSRN9nD+XWab9YxpcdpWsAEBFvQLfh+2Ayq79AeaP3y0RyIknMLaN5A4AbsKYp326LQRoYAazUb9w/0qXJ29B6C7sIp/nerO28t7MyohjA5t4AGTfeA3UVxIjN2NAv2xSM5mmXjMm/u3dAXEWhBt+K+9I3Kd/d0ZNS3KycmCBQKaABPhd54Di+2vzANI5t7GEHrkyo036jjykNp7pHHEGRBt+JS0xTqH+jXnB5xuw3nJIJWiKHeOA0FNIBj4Wsaw/wdL7yjzJ4zWbS/3BZH4WXNGjZS/bQvbQPaLUD3Gwvld6dm+0V7Tz8tiiiCUDmG5RyT7mFBRAEN4KzjU9MNOr1hp7WiKA7+t+1PobqOwZZXUpiwNnoBAizolgwvDrY4cPfiNeEQLHvOM5S2MF/T/QjIgPOxIvRKFsU91oiiuPe/EJKtGTgyahJo4YnnEFxBt+SWhGWa6zqlpo1u2ZkI4bIP+zj2hHFWeA+/nCMzBFzlXjH0ep2PYZXZOHfIoadrE8s1A0dYcSDaLUC3pbzMyYSW01HW2kWP+2dAvGzPLo45ISyI/8cv5ecgCAOug1WhZ+l8DeN4kS42O0NoLuIrN0RSVMXgoCGNzYcytyGwgm7tWpNZm6Q5fHd+WAEEzNaZoY/Bn/lziCHgqqIoFajn8WJ9kVmoPd0iRnP6d11HFW2IXYTACrotpwfeT0G5ezVPPzalVKjTEQiZTdjJcWa7egGXF3EAcP0jVNPfeeFmnHqT++9ivv9gumbAKGrMprePP4vACrotX/G/m3alrtFc3zKVYvzHMRCz0bOCuZSJwb6Au1WgGv+u0xtCvimKcwz5mgEjqy4Z94eg23NN9JvU2duuWVhz6+4kCNroKkkz1OmTr+lSBFfAHatPx7Ig/kbnY9jBC7ldFvb+rBpNu7aIkmAEVND9G/SNU6ikKW/QGm/s6qUH/nMSwjby+8IYjiUPcEw5H4EVcO9iGx/D93lRL5MK1LTatkHBoquvk/anb0RABd2e8489TSlVURovfUTTjueqtiMI3BlSL+Yfht+xGJ6HgAp4yvHp+ResCn+2q69/0Hjvjp422hD7DgIq6PacHfwQhRUHaF4LvB9TgsIa6zmgTpX0xo+YKJ4BPA8cE34h+nd6oGjpaqS3T/wbARX0CB7I2EoDNLiSent6FY3bAKNvK49I81kIZ+l8cF8IeK4g3iUnpIPuVzpraYr/PQimoEdwV+pa6uzt0Kw0xcDgYdl7amiAYZJuRehFiJqAJwviS8xBJqbFTTkIpKDHcHP8Un7JGzz8Oq6yRfXhQvSG5C7mTbpVobBhAzxeEPXMQUMQpQgBgRT0FK6MfJ0qWooHCWJBU6ea9ALR02QzZ4WLdXrTdYiUgLcI4mYtQQzO3YdACnoMPwh/lUqbB/fbikPTTTsSIH6Dj0jTmI/ofEIv0q0IRaAEvEYQg2Ts4emB4mDGVgRS0GP45rEnKaM2QbPS9G/7UtQINAihYoNOb9jBWeFvER0BbxTEWK0gsStlDQIp6DGcE/IwpVZHawriy0dzaKwvehGZuTofw3zOCL+HyAhAEL8BDAUGPYmT/e6k2LITEETLR6TBzIm6lQb4kQJeK4bXMTWdvVdFzUMgBT2K0WXHIYiaR6RGX+bPdPowVJECXi2IP2dmagWJZaZpCKKgVwjiO5HFdLb32bf16vSGkzpf00QWwwvhOgNAEIcQxBmB/0QQBb1CEDenVHiTn6lMqChjEdyoWxl6DaIgAEAQQS9kaOF/qG+gz5sFUXxITzAf0fmYLkQEBAAIIuilPJS5jbo07Nu8RBBr1BBfvfFG3arQsYh+AABBBCGI3iiIx3U+hrs4K7wMUQ8AIIgg6G2C2McsYb7FQngtZ4VjEPEAAIIIgt4miJU6vWGnTm+8CVEOACCIIDiIh7M+o66+Tk8WxE41pklvfIYzwksQ4QDARoL41vFnEERBj6Kh8LCnVpnK8Wg6c5FOb/qFTh+G4AYAthRE38jXEERB9CG6xYgm42qd3vBHFkMM7wWAUQjizywJIqzbQG8RxE3JbieIA8xund4YrfM13MT/fQmcZgBg9IJ4PlNzJs7aGJh7gzD3dkEhbGQe4Wxwkk4fdj6iGADYVhQx/gn0gvFPkyi1yq3HP3UzQ3U+hlk6X9MPEbkAwD6CeBADgkFvHhA84UA6neXr0qOZEnV6wzucFf4SEQsA7CuIm5iDSu/E9xGBFPQULja8TPkNGZqCePPORNc04dYbs5jzWQxv1vka4D0KAA4QRB8tQUysCEMgBT2G+vBZVNZcMEgMGzp76LefxrtWC4XeUMNCuEDnY/gJf70ABTMA4DhBfInZc3qgKGnKRSAFPYYfxb9HjZ21gwQxrbaNbtga6wrFMk3MFBbA9zgbvBqRCQCcI4gPMbtPDxSNnXU0NeBeBFPQI7gzZTV19LYNEsRjxY103eZoZ4phtaoaPVUsMx6TKADAuYJ4I3OQn1VLVyMtgFsN6CE8mPmJ5v3htvQqGrc+0hlCWM88wBnhv1kIf4JIBACuIYgXM9tPDxTtPS20OvpNBFPQ7Sm+vMcLDmoK4orYUrp0bYTjjkb1hir++jHzfp3edL1OH4YpFADgYqKYenqgEBPkfekbEVBBt+fckEcpuvSYpiBOP55rb5eaAVUx6sNCqDcu56+/4h9fjnFMAOC6gvj56YGir78XrRegR/A9w2QqbMwaJIZtPX308OEMezbSV5xylTE+r/MxXYFIAwDuIYhvab09Z9Ym0hT/uxFUQbfmysjXqaW7cfD6rm+nv+5NtrUQirVaHGeC6/jrfRjDBADuJ4j3aQliUWM2xkCBbu5hehdtT/LRPC4NLmywVcuFHIsWM3cxp3M2eBPzbEQWAHBPQZSpF12nB4yatgpaEz0fgRV0W04PvJ+CcvdqCuIn6VV0xYcRoz0WjedscC7zr/zf13BGCCEEADcXxKu1xkC197TS3rQNCKyg23J28CRKrAgfJIa9/QO0JKqYxviOxFLNUMhf1zBvY16rWxGKqRMA4EGCeClzq9ZbtEwZfwX3iKCbcsGxp6mxY7BDTXV7N/07KMvaLLCGmavTGz/T+ZrkXhC+ogDgwYJ4LnOqpcKahSeeQ3AF3ZLrohdoHpem1rbRrbuSLPuJ+hjLmSbOBiUTfEzna/wRWiUAwDsE8SzmXWJQo3WPuDrqDQRX0C1pqSFfLNu+8+37QxHBPOaXLIJL+OvjOh/TDYgOAOCdoigWbtGD71p6aE/aOhybgm7JkqY8Gmw60U++8aUigj06vTGHv27nDHCyzsfwF/7x9boVoeciIgCAdwviOOYWrbdpU5E/zQ5+CAEWdCvOP/YU9fQP8q2njt7+Dn1s6VbOBP/KAjieM8Hv6laFnoMoAADAV4IonK41CqqytZjeCX0RQRZ0K+5IWU0DAwNa73h5vf0D3+VMEBsfAACLoni7VvuFYEPsInrZ7w4EWtAtOMX/HkqujCAL+A92OwAAwwni95l+2u0XfjTVH/MRQffgYsPLVNteaUkQp2G3AwAwnCCOYfpoudZIcJkZOBHBFnQL7k/fpDkQ2Dz782fY7QAAWCOKE5mlp0eRgYF+2hT3LoIt6AbzD++n+AojDZDm/eEJ5nnY6QAAWCOIVzAjRQNPjySJFWHKLBlBF3Rlro6aR5WtJVpiKGv6FTkJwU4HAMBaUVyoVW3a1t1Mi0JfQNAFXZbSL3sw8xPVP6sBUcmfY4cDAHAmgvhr0b/To0lPX7cKNgi8oCv3HiZXRVoqptnM/C52OAAAZyKIZ5vvWk47bxqg7Lpkei3kEQRf0OUobUHSHtTe06Ilhu3MZ5hjscMBADhTUfy3VlRp7KyjjxOWIQCDLsdXgx6ksKJAS9lhHPNm7GwAAEYiiDIjsUArssSUHadZsHIDXYxLjK9QV2+n1pLtZfoyL8LOBgBgJIJ4AfNdZt/gCRjltDZ6Ab18GM41oOtQZndagLgv3YZdDQDASAVRRkL9xVyZ9y30D/TR0fwv6NWgBxCIQZfg3COPUktXo6XscAfzEuxqAABGI4pXWpqAUdteQcvDZiBLBF2CBzO3WsoO65hPYDcDADBaQRQrt8eYFYOdawboaN4XNDUA/qagc7ng+NNU1lJgSRCjkB0CAGArURTD7y/lpHTwXLl2ehdjoUAnN+IH5uym7r4uLTGUNfsv7GIAAGwpik8xq7QijpS5w84NdBb14bOpvKXQUnaYhewQAABbC+I4ZqBWliiFDBKUEJxBR1Omr0hxV19/r5YYdjBfkOIw7GAAAGwtio+Y3T5Oqzjtp/hyI00PvA9BGnSoK83KyLmWTLwFQXLcj50LAIA9BPEi5lGtyNPUVU9bE5cjUIMO46ygB8lU5K9eyDTQaj7mPxs7FwAAe4ni780DVge5nGbUJNDCE88hWIMO4ab4xdQ30GdpxJMUgV2PHQsAgD0F8WLzxIBBr+VS5Xc461OaHng/AjZoV84JnkRVbaWWjkorUFkKAIAjBFHca25hZmhFosqWYvKJmKPudxC4QXu1WRzK3GZJDLuZ22XINXYrAACOEEW5S3zTfE8zCIkVYTQj8J8I3qBd6BPxmvLStYBcOdbHLgUAwJGi+AuteYlfDRHenbIWwRu0Od889iQlV0YqL10LmCfuStihAAA4UhDF0u15S836rd1N9J5xMnxOQZtxesB9FJS7h3r6uy2JYQLzXOxOAACcIYrnMTdJUjjY57SfUqui6Y2j/0IwB0d/b+h3N22OX0INnbWWxFB+4u9MbEwAAJwmiuOZKZo2IT1t5Je9g2YGTURQB0fFRSeep+y6FEtiKCameuZl2JEAADhbFB8zB6XBc3faq9SbvVQGIrCDIz0qDS8OttRzKDjCvBEWbQAAuIIgXmI+OtXokB6gosZsWmaahvtEcETcm7be0iQLgcx8mgRHGgAAXEUQhT8zv6n3a81NTKuOpblHHkOAB63mZL87aVPcYmrqrLckhs3MBcxzsAsBAHAlURzLnGAetzOgFb2MRf40Ay42oJViqI+YTWWWxzrJGtvLvBy7DwAAVxRFadifY674G4Te/h7al74B1m7g0FMsDt9B74S+oKqULRh3f9WAfwN2HQAAriyKVzE3mi20BqGho4a2J+npFQwUBi3wtZBHKKr06FD3hnXMJ7DbAABwB1H8gblJmrTuEytaiml97EKaDFEEB/Ub3kXH8g8MJYZiFziXeSF2GgAA7iKKvzS72AxoVZ5WtBTRivBZqDwFv+YU/3soJG+/Olq3gA6mL/N7aMAHAMCdBFGKbO41l8VrQtox3jdNhxiAqtjqQMYW6urtGGqKxX7mj7G7AABwR1GUIpvJTIuD6/IbMmipaSpEwYs5M3Ai7U5dS42WbdkGzEbyv8OuAgDAnUXxcuZCqaexdKeYWZtIy8NmQhy80YWGM8NdLIb1HVU0BE4y/4DdBACAJ4jiOOYaZqdWtOvr71WiuAzHp15XQCPHpE2ddUOJYSXzn9hFAAB42vHph1qTMQQy3y6nPo18I15DS4YXcKr/vaqAZohqUjkmLTLbsmGkEwAAHieKX42LshgFGzlb2BC7iKbADNxjm+7nhjxKR/O/VIOkhxDDbOZD8CgFAMBTBfEs5k/N1YJtlqKhNO9vS9LD0cYDxXDhiecovDiIOnvbhxLDHOa/4VEKAICni+IYsyiuZzZZiopi6Pz5yY9oTvDDEBNPEEO/O9TEk5SqqKGOSclckSyZ4QXYLQAAeIswXj1UoY0077d2N9GJwkM07+gTEBU35+qoN6iwMWsob9KvCmgelh5W7BAAALxNFC82F9pYvEwS15KTNQn0ruElzjLuhLi4Fe9Q7jNbE5dTQ2etesmxgH7zlJSJKKABAMCbRfFs84SM6qFSh+auBtoY9w69GvQAhMZNWioWhb5AhqLDQ90Xkrnq2MC8FbsBAACI4qlM8SVmptaA4a/Q3tNKgTm76a3jzyJbdHExXB/zNmVwZt830DeUGMpPfsn8M3YBAADAf0XxfOaDzBhzoNSEeF1KYca6mAXqOA4C5FqcHfwQ7U/fRFWtpTQMus3H5eOx+gEAAAaLovQp3sIMGiqSDgz0U01bOQXn7aNpARMgRC5CqSKNLzeqTH4YiDXNIuaVWPUAAACWRVF6Fa9kbrPkavP15VN/N2XVJquJGXC3cV5v4ZyQh1WLjGSF/UMfkQ6Yj8WfZl6CEU4AAADWCaPcK85g5kqx6VBRtqW7iQJz99A7oS/gGNWRUyqCJtLKyLmUWZtEVqDNnPnfgtUNAABw5qIoFai3M/2Hsnv7yiBcRkntSfuQ5h55DIJlR04LuI+WmaZSEL+ENHfVWyOG4kn6AfMqrGoAAIDRCeMvmEuZNcNFXim6iS49plo0ZgU/CAGzsdvM2yf+TYezPlVN9kNMtv9mFWkk819yRIqVDAAAYBtRvMTcuB0xXBQWNxSZrxdXHkqro+bhGNUW0ykCJqjq0YLGzOH6Cr8+yTYbuf8OzfYAAAC2F8WxzJ8wVzLrzUUaQwhjn7J/Cy8JpuVhM+gV/7tVEQgEzjpO9ruTs+yH6LPklZRbn2atEEpWWGJuoblMiqSwcgEAAOwrjv9gBpszkWEhx3uJFWG0NnoBvX7kcQ72qEq1fEc4QRUo7T+5icpbishK9JiF0EcGQmOFAgAAOFYUr2C+xUwYyg/1m+joaVON/ZL1SNCfGnAvRNB8PyjtE1I1eijzE6psLaEzgPQV7ja/pJyPlQkAAOAcUTyH+QfmCmb+cMeo38wYs+qSlRXc2uj56mjQW8VQZhR+muxLESXBVNNWMdxEitPdZo6Ybfe+j9UIAADgGsIo91W3MT+SRNDaiC7CKK43qdUxdJAzI8kavaWHcF3MW3Qs/4BqV2npajwTISTzdArpE/05ptoDAAC4niiOMQvjX8ym0W3WZowymqirr5MaOmqUKbX0M7559EnlgOPuRuJSSCQFMlJUJMVFR/O/oIKGTFVwZEXrxOljmsrNx9Q/M1vtYeEBAAC4uDhKU/+tzF3M4uFs4CxZw0m/3aGsbeQb+ZqasvFayMMuf+8o94EzAu9Xg5UXG16mzfFLyFQcQE2ddTQCyAtFIzOb+Tbzu1hdAAAA7imM55mLPaQnLoXZOhJVECcc8eqU3sYDmVtoU9xizrZm0oLjz6jjx8lOzCJf8bubXj/yGC0xTqGVka/T1oT3lYtMZm0itXQ10QgxYJ5gH8iczfwxWigAAAA8Rxj/zJzHDDFnPSNGd18XlbUUqrtHU1EAC9BeVbm6PnYhvR82g7PJZ2h28CSVrdlS/OYdeZzeNbxEq6Lmqcxvb9p6CuY/W4S6gLPZuo4qldmOEoXMzWaHmR9K/ydWEAAAgGcK4w1m15uPzMepNkFrdzPVtldSaXM+5dWnq7vIxMpwCisOJP+cnYq7U9fSxwlLaXPCkmEpEyTk98idX1y5QX2v7LpkdYwr2WpDZ61qlh8YGLDFX19UNMp8PyjFSd/DagEAAPAOYZQCnMvNVZIvM8OZnebCEZtCpsZLRimUPkgRTmsoYie/RwpfBmjA1n+tAfO/tcp8nCwi+APmhTgaBQAAgEiOYz5vdsDJNzec95DnQKpuy5jJ5iPR29FIDwAAAAwljOeaM8dnmevNzec5zGZ7ZJB2hPiKljLjmYeZC80FRphUDwAAAIxIIL/PvIv5itkRZx8zyWww7kroNBfEmJg7mPOZDzNvZl6KTxIAAACwpThewLyW+Xvm3cznmO8yP2NGmwXJEZB+ipPm4125A3yD+U/mX5k3Mq9G0zwAAADgSIGUkVQXScO6uUVhPPOXZrF8xjzYWI5dtzFDmbHfYKFGhpd22q8JMP9+4avm7/lLc6Xsj5jXML8jQo1PAwCA/w81YeanaM23UwAAACV0RVh0ZGF0ZTpjcmVhdGUAMjAyMS0wMS0yOVQxNDowNDoxNiswMDowMD42Ak0AAAAldEVYdGRhdGU6bW9kaWZ5ADIwMjEtMDEtMjlUMTQ6MDQ6MTYrMDA6MDBPa7rxAAAAAElFTkSuQmCC;" vertex="1" parent="1">
          <mxGeometry x="1010" y="155" width="30.9" height="35" as="geometry" />
        </mxCell>
        <mxCell id="c2ikwcp3_SZ86CP-GAVo-1078" value="&lt;font color=&quot;#999999&quot;&gt;Neo4j&lt;/font&gt;" style="text;html=1;align=center;verticalAlign=middle;whiteSpace=wrap;rounded=0;" vertex="1" parent="1">
          <mxGeometry x="1040.9" y="155" width="60" height="30" as="geometry" />
        </mxCell>
        <mxCell id="c2ikwcp3_SZ86CP-GAVo-1079" value="" style="edgeStyle=orthogonalEdgeStyle;fontSize=12;html=1;endArrow=blockThin;endFill=1;rounded=0;strokeWidth=1;endSize=4;startSize=4;dashed=0;strokeColor=#4284F3;exitX=0.994;exitY=0.531;exitDx=0;exitDy=0;exitPerimeter=0;entryX=-0.024;entryY=0.519;entryDx=0;entryDy=0;entryPerimeter=0;startArrow=none;startFill=0;" edge="1" parent="1" source="c2ikwcp3_SZ86CP-GAVo-1070" target="c2ikwcp3_SZ86CP-GAVo-1075">
          <mxGeometry width="100" relative="1" as="geometry">
            <mxPoint x="740" y="280" as="sourcePoint" />
            <mxPoint x="840" y="280" as="targetPoint" />
          </mxGeometry>
        </mxCell>
        <mxCell id="c2ikwcp3_SZ86CP-GAVo-1103" value="" style="edgeStyle=orthogonalEdgeStyle;fontSize=12;html=1;endArrow=blockThin;endFill=1;rounded=0;strokeWidth=1;endSize=4;startSize=4;dashed=0;strokeColor=#4284F3;exitX=1;exitY=0.559;exitDx=0;exitDy=0;exitPerimeter=0;entryX=0.012;entryY=0.444;entryDx=0;entryDy=0;entryPerimeter=0;" edge="1" parent="1" source="1038" target="c2ikwcp3_SZ86CP-GAVo-1092">
          <mxGeometry width="100" relative="1" as="geometry">
            <mxPoint x="740" y="290" as="sourcePoint" />
            <mxPoint x="840" y="290" as="targetPoint" />
          </mxGeometry>
        </mxCell>
      </root>
    </mxGraphModel>
  </diagram>
</mxfile>
